<svg width="630" height="320" viewBox="0 0 630 320" fill="none" xmlns="http://www.w3.org/2000/svg"><path d="M308.353 131c-.747 0-1.353.606-1.353 1.353v.696l.002.033c.14 2.816 2.265 5.636 5.88 5.914l.051.004h.714a1.353 1.353 0 000-2.706h-.606c-2.078-.182-3.242-1.744-3.335-3.316v-.625c0-.747-.606-1.353-1.353-1.353z" fill="#fff"/><path fill-rule="evenodd" clip-rule="evenodd" d="M312.063 109.139c-6.993.307-12.399 6.048-12.75 13.039-.176 3.506-.313 6.641-.313 9.555 0 2.719.119 5.44.278 8.568.354 6.956 5.751 12.645 12.709 12.957 1.054.047 2.075.075 3.013.075a68.9 68.9 0 003.112-.08c6.913-.317 12.29-5.938 12.631-12.85.148-3.009.257-5.698.257-8.67 0-3.319-.121-6.381-.282-9.688-.337-6.933-5.718-12.586-12.652-12.901a69.667 69.667 0 00-3.066-.077c-.915 0-1.91.026-2.937.072zm-8.861 13.84c.265-5.328 4.311-9.68 9.523-9.92A49.67 49.67 0 01315 113c.743 0 1.557.024 2.394.064 5.157.246 9.177 4.517 9.426 9.791.024.502.046.931.067 1.319.068 1.316.113 2.179.113 3.967 0 1.764-.049 2.768-.123 4.278-.012.243-.024.499-.037.773-.25 5.253-4.265 9.493-9.402 9.742-.853.041-1.682.066-2.438.066-.729 0-1.525-.023-2.345-.062-5.18-.244-9.217-4.547-9.48-9.843-.018-.346-.034-.663-.049-.959v-.002c-.076-1.458-.126-2.431-.126-3.993 0-1.5.046-2.324.117-3.575.025-.455.054-.966.085-1.587z" fill="#fff"/><path fill-rule="evenodd" clip-rule="evenodd" d="M297.835 93h34.33c7.535 0 9.483.782 11.365 1.788a11.192 11.192 0 014.682 4.683c1.006 1.881 1.788 3.829 1.788 11.364v1.186c0 .546-.437.99-.983 1.013-.167.007-.337.016-.508.025-4.56.24-8.1 4.592-8.332 9.92-.027.617-.052 1.126-.074 1.578l-.001.006v.003c-.061 1.251-.102 2.075-.102 3.575 0 1.562.044 2.535.11 3.993.013.297.028.614.043.961.23 5.296 3.763 9.599 8.295 9.843.191.011.382.02.569.028.546.023.983.467.983 1.013v1.186c0 7.535-.782 9.483-1.788 11.365a11.197 11.197 0 01-4.682 4.682c-1.882 1.006-3.83 1.788-11.365 1.788h-34.33c-7.535 0-9.483-.782-11.365-1.788a11.197 11.197 0 01-4.682-4.682c-1.006-1.882-1.788-3.83-1.788-11.365v-1.186c0-.546.437-.99.983-1.013.214-.009.431-.02.65-.032 4.495-.249 8.008-4.489 8.227-9.742.011-.27.022-.522.032-.761l.001-.012c.064-1.51.107-2.514.107-4.278 0-1.788-.039-2.651-.099-3.968a286.75 286.75 0 01-.058-1.318c-.219-5.274-3.735-9.545-8.248-9.791-.206-.011-.41-.021-.612-.03a1.02 1.02 0 01-.983-1.013v-1.186c0-7.535.782-9.483 1.788-11.364a11.192 11.192 0 014.682-4.683C288.352 93.782 290.3 93 297.835 93zm14.076 12.675c-8.903.392-15.625 7.678-16.06 16.329-.176 3.506-.318 6.719-.318 9.729 0 2.814.124 5.612.283 8.744.439 8.629 7.164 15.847 16.016 16.244 1.089.049 2.165.079 3.168.079 1.035 0 2.146-.032 3.271-.084 8.787-.403 15.51-7.536 15.934-16.142.149-3.026.262-5.782.262-8.841 0-3.404-.125-6.532-.287-9.856-.419-8.62-7.138-15.796-15.957-16.196A72.503 72.503 0 00315 105.6c-.979 0-2.027.028-3.089.075z" fill="#fff"/><path d="M365.412 186h5.86v41.095h-5.86V186zM261.72 186.238h-6.326v6.233h6.326v-6.233zM318.893 210.103c2.771.475 4.894 1.307 6.307 2.605 1.44 1.38 2.16 3.236 2.169 5.603 0 1.454-.301 2.788-.784 3.995v.018c-.556 1.243-1.421 2.221-2.57 3.071-1.148.85-2.597 1.508-4.384 1.929-1.795.484-3.992.658-6.507.658-1.942 0-3.783-.183-5.441-.54-1.668-.365-3.172-.959-4.439-1.809a9.247 9.247 0 01-3.154-3.346c-.793-1.343-1.266-3.034-1.449-5.064l-.036-.393h5.806l.027.33c.118 1.188.401 2.111.875 2.806l.009.009c.483.758 1.139 1.307 1.914 1.755.775.448 1.613.722 2.625.895 1.021.174 2.105.229 3.263.229 1.741 0 3.108-.119 4.247-.347 1.085-.229 1.923-.512 2.57-.896.638-.366 1.057-.841 1.313-1.353a5.202 5.202 0 00.373-1.901c0-1.051-.41-1.746-1.112-2.203-.765-.494-1.759-.832-3.016-1.06h-.01l-9.15-1.463c-2.552-.411-4.612-1.252-6.079-2.605-1.486-1.371-2.215-3.299-2.215-5.712 0-1.216.237-2.432.729-3.538.501-1.124 1.303-2.047 2.388-2.888 1.103-.859 2.488-1.463 4.147-1.938 1.677-.475 3.636-.713 5.933-.713 1.832 0 3.555.174 5.214.53 1.613.357 3.053.96 4.256 1.746l.009.009a10.411 10.411 0 013.026 3.273c.793 1.343 1.267 3.043 1.504 4.999l.045.412h-5.878l-.037-.329c-.109-1.116-.437-1.993-.875-2.706a5.924 5.924 0 00-1.804-1.7c-.775-.439-1.604-.713-2.498-.887-.993-.119-1.959-.228-2.98-.228-1.559 0-2.807.109-3.764.338-1.03.228-1.805.512-2.343.832-.519.311-.874.722-1.075 1.179a3.95 3.95 0 00-.319 1.609c0 1.142.365 1.882 1.103 2.321h.009l.009.009c.811.54 1.914.887 3.354 1.116l8.695 1.343zM226.566 197.115l9.698 21.58 9.305-21.58h6.362l-14.036 29.98h-3.363l-14.391-29.98h6.425z" fill="#fff"/><path fill-rule="evenodd" clip-rule="evenodd" d="M345.98 196.237c4.184 0 7.538.823 9.953 2.523 2.461 1.727 3.719 4.607 3.737 8.427v19.936h-5.86v-4.836c-.976 1.947-2.461 3.4-4.439 4.333-2.042.96-4.32 1.38-6.808 1.38-1.641 0-3.136-.119-4.521-.484-1.376-.357-2.588-.905-3.573-1.701-1.048-.74-1.841-1.782-2.388-2.998-.619-1.243-.856-2.769-.856-4.488 0-1.023.118-2.12.483-3.217a7.315 7.315 0 011.959-3.071c.921-.932 2.197-1.655 3.801-2.249h.009c1.622-.548 3.709-.841 6.243-.841.583 0 1.13.01 1.641.028h.082c.483.018.929.027 1.367.027.474 0 .92.009 1.34.028h.036c.143.003.284.007.422.011.257.008.508.016.763.016h.036c.757.064 1.504.119 2.243.119h.036l.226.016c.589.042 1.21.086 1.888.094v-2.084c0-2.157-.619-3.602-1.777-4.443-1.194-.868-3.135-1.389-6.024-1.389-1.258 0-2.406.11-3.327.229-.948.164-1.713.447-2.361.877-.647.43-1.13.969-1.513 1.682l-.018.018c-.437.704-.711 1.591-.884 2.733l-.045.311h-5.688l.046-.411c.237-1.966.711-3.647 1.44-4.991.72-1.335 1.631-2.422 2.789-3.281l.009-.01c1.148-.795 2.534-1.398 4.147-1.755 1.549-.365 3.381-.539 5.386-.539zm-7.282 25.612c1.139.658 2.981 1.005 5.533 1.005 1.157 0 2.251-.055 3.399-.256a10.346 10.346 0 003.044-.96c.866-.429 1.577-1.087 2.133-1.919.529-.805.875-1.901.984-3.263v-2.669c-1.503-.055-2.944-.11-4.247-.165a71.68 71.68 0 01-2.014-.027h-.082c-.218-.003-.43-.008-.639-.012-.378-.008-.744-.016-1.102-.016-1.96 0-3.564.174-4.703.403-1.148.292-2.014.63-2.534 1.042l-.018.018c-.592.42-.948.941-1.094 1.444l-.018.037c-.209.521-.264 1.115-.264 1.736 0 1.856.556 2.989 1.622 3.602z" fill="#fff"/><path d="M261.492 197.115h-5.861v29.98h5.861v-29.98zM436.84 212.708c-1.413-1.298-3.536-2.13-6.307-2.605l-8.695-1.343c-1.44-.229-2.543-.576-3.354-1.116l-.009-.009h-.009c-.739-.439-1.103-1.179-1.103-2.321 0-.595.109-1.134.319-1.609.2-.457.556-.868 1.075-1.179.538-.32 1.313-.604 2.343-.832.957-.229 2.205-.338 3.764-.338 1.021 0 1.987.109 2.98.228.893.174 1.723.448 2.498.887.71.439 1.312.987 1.804 1.7.438.713.766 1.59.875 2.706l.037.329h5.878l-.045-.412c-.237-1.956-.711-3.656-1.504-4.999a10.411 10.411 0 00-3.026-3.273l-.009-.009c-1.203-.786-2.643-1.389-4.257-1.746a24.678 24.678 0 00-5.213-.53c-2.297 0-4.256.238-5.933.713-1.659.475-3.044 1.079-4.147 1.938-1.085.841-1.887 1.764-2.388 2.888a8.723 8.723 0 00-.729 3.538c0 2.413.729 4.341 2.214 5.712 1.468 1.353 3.528 2.194 6.08 2.605l9.15 1.463h.009c1.258.228 2.252.566 3.017 1.06.702.457 1.112 1.152 1.112 2.203 0 .704-.155 1.353-.374 1.901-.255.512-.674.987-1.312 1.353-.647.384-1.486.667-2.57.896-1.139.228-2.507.347-4.247.347-1.158 0-2.242-.055-3.263-.229-1.012-.173-1.85-.447-2.625-.895-.775-.448-1.431-.997-1.914-1.755l-.018-.009c-.474-.695-.757-1.618-.875-2.806l-.028-.33h-5.805l.036.393c.182 2.03.656 3.721 1.449 5.064a9.14 9.14 0 003.154 3.336c1.267.851 2.77 1.445 4.438 1.81 1.659.357 3.5.54 5.442.54 2.515 0 4.712-.174 6.507-.659 1.786-.42 3.236-1.078 4.384-1.928 1.148-.85 2.014-1.828 2.57-3.071v-.019c.483-1.206.784-2.541.784-3.994 0-2.358-.729-4.214-2.16-5.594z" fill="#fff"/><path fill-rule="evenodd" clip-rule="evenodd" d="M399.973 220.359c.483-.649.811-1.463 1.039-2.541l.064-.311h5.796l-.063.42c-.292 1.847-.83 3.419-1.686 4.708-.839 1.334-1.869 2.367-3.145 3.153-1.267.786-2.707 1.325-4.311 1.682-1.668.356-3.445.475-5.386.475-2.416 0-4.548-.228-6.453-.768-1.914-.475-3.6-1.38-4.931-2.596-1.331-1.224-2.352-2.86-3.072-4.89-.72-1.983-1.075-4.478-1.075-7.431 0-3.016.346-5.575 1.066-7.614.711-2.029 1.732-3.72 3.063-4.999l.009-.01c1.321-1.206 2.953-2.111 4.867-2.65h.009a26.179 26.179 0 016.389-.768c4.493 0 8.084 1.133 10.737 3.428 2.606 2.321 3.91 5.822 3.91 10.456v4.287h-24.199c.037 1.682.31 3.08.729 4.122.447 1.115 1.112 2.002 1.933 2.66.82.667 1.813 1.115 2.989 1.335 1.203.228 2.525.347 4.019.347 1.158 0 2.188-.055 3.209-.229h.018a7.604 7.604 0 002.561-.786l.009-.009h.009c.748-.32 1.34-.804 1.896-1.471zm-4.229-18.601c-1.085-.229-2.288-.402-3.591-.402-1.385 0-2.579.119-3.719.356a7.339 7.339 0 00-2.943 1.28c-.821.603-1.486 1.435-1.987 2.55-.465 1.033-.748 2.322-.83 3.985h18.201c-.027-1.554-.255-2.797-.665-3.83-.447-1.124-1.003-1.946-1.759-2.605-.766-.612-1.65-1.051-2.707-1.334zM290.994 198.76c-2.415-1.7-5.769-2.523-9.952-2.523-2.005 0-3.837.174-5.387.539-1.613.357-2.998.96-4.147 1.755l-.009.01c-1.157.859-2.069 1.946-2.789 3.281-.729 1.344-1.203 3.025-1.44 4.991l-.045.411h5.687l.045-.311c.174-1.142.456-2.029.885-2.733l.018-.018a4.497 4.497 0 011.513-1.682c.647-.43 1.403-.713 2.36-.877a26.017 26.017 0 013.327-.229c2.889 0 4.831.521 6.024 1.389 1.158.841 1.778 2.286 1.778 4.443v2.084a31.002 31.002 0 01-1.888-.094l-.227-.016h-.036a26.7 26.7 0 01-2.242-.119h-.037c-.255 0-.506-.008-.763-.016a51.38 51.38 0 00-.422-.011h-.036a29.7 29.7 0 00-1.34-.028c-.437 0-.884-.009-1.367-.027h-.082a46.57 46.57 0 00-1.641-.028c-2.533 0-4.62.293-6.243.841h-.009c-1.604.594-2.88 1.317-3.801 2.249a7.315 7.315 0 00-1.959 3.071c-.365 1.097-.483 2.194-.483 3.217 0 1.719.237 3.245.847 4.488.547 1.216 1.34 2.258 2.388 2.998.985.796 2.197 1.344 3.573 1.701 1.386.365 2.88.484 4.521.484 2.488 0 4.767-.42 6.808-1.38 1.978-.933 3.464-2.386 4.439-4.333v4.836h5.86v-19.936c-.009-3.82-1.267-6.7-3.728-8.427zm-17.49 16.27l.009-.009c.52-.412 1.377-.75 2.534-1.042 1.139-.229 2.744-.403 4.703-.403.358 0 .724.008 1.102.016.209.004.422.009.639.012h.082a71.68 71.68 0 002.014.027c1.304.055 2.744.11 4.247.165v2.669c-.109 1.362-.455 2.459-.984 3.263-.556.832-1.267 1.49-2.133 1.919-.902.448-1.914.787-3.044.96-1.148.174-2.233.229-3.39.229-2.552 0-4.393-.348-5.533-1.006-1.066-.612-1.622-1.746-1.622-3.601 0-.622.055-1.216.264-1.737l.019-.036c.155-.476.51-.997 1.093-1.426zM204.774 196.237c4.184 0 7.538.823 9.953 2.523 2.452 1.727 3.709 4.607 3.709 8.427v19.908h-5.86v-4.835c-.975 1.947-2.452 3.4-4.439 4.332-2.041.96-4.32 1.381-6.808 1.381-1.641 0-3.135-.119-4.521-.485-1.376-.356-2.588-.905-3.572-1.7-1.049-.74-1.842-1.782-2.388-2.998-.611-1.243-.848-2.77-.848-4.488 0-1.024.118-2.111.483-3.208a7.318 7.318 0 011.96-3.071c.92-.933 2.196-1.655 3.8-2.249h.009c1.623-.548 3.71-.841 6.244-.841.583 0 1.13.009 1.64.028h.082c.483.018.93.027 1.367.027.474 0 .921.009 1.34.027h.037c.143.004.283.008.421.012.258.008.509.016.763.016h.037c.765.064 1.513.119 2.251.119h.037c.074.005.15.01.226.016.589.041 1.21.085 1.888.093v-2.084c0-2.157-.62-3.601-1.777-4.442-1.194-.868-3.136-1.389-6.025-1.389-1.258 0-2.406.109-3.326.228-.957.165-1.714.448-2.361.878a4.49 4.49 0 00-1.513 1.682l-.018.018c-.429.704-.711 1.59-.884 2.733l-.046.311h-5.687l.045-.403c.237-1.965.711-3.647 1.44-4.99.721-1.335 1.632-2.422 2.789-3.282l.01-.009c1.148-.786 2.533-1.389 4.156-1.746 1.549-.365 3.381-.539 5.386-.539zm-7.537 18.784l-.009.009c-.584.429-.939.95-1.094 1.426l-.018.036c-.21.521-.265 1.115-.265 1.737 0 1.855.556 2.989 1.623 3.601 1.139.658 2.98 1.006 5.532 1.006 1.157 0 2.242-.055 3.39-.229a10.323 10.323 0 003.045-.96c.865-.429 1.585-1.087 2.132-1.919.529-.804.866-1.901.985-3.263v-2.669c-1.504-.055-2.953-.11-4.248-.165-.701 0-1.376-.009-2.014-.027h-.082c-.217-.003-.43-.008-.639-.012-.378-.008-.744-.016-1.102-.016-1.959 0-3.563.174-4.703.403-1.157.292-2.014.63-2.533 1.042z" fill="#fff"/></svg>