<svg width="45" height="16" viewBox="0 0 45 16" fill="none" xmlns="http://www.w3.org/2000/svg">
<g id="Group">
<g id="Group_2">
<path id="Vector" d="M12.918 3.18701C13.6028 3.18701 14.158 2.5919 14.158 1.85779C14.158 1.12368 13.6028 0.528564 12.918 0.528564C12.2332 0.528564 11.678 1.12368 11.678 1.85779C11.678 2.5919 12.2332 3.18701 12.918 3.18701Z" fill="#EC1846"/>
<path id="Vector_2" d="M16.747 3.18701C17.4318 3.18701 17.987 2.5919 17.987 1.85779C17.987 1.12368 17.4318 0.528564 16.747 0.528564C16.0622 0.528564 15.507 1.12368 15.507 1.85779C15.507 2.5919 16.0622 3.18701 16.747 3.18701Z" fill="#00B8F1"/>
<path id="Vector_3" d="M20.577 3.18701C21.2618 3.18701 21.817 2.5919 21.817 1.85779C21.817 1.12368 21.2618 0.528564 20.577 0.528564C19.8922 0.528564 19.337 1.12368 19.337 1.85779C19.337 2.5919 19.8922 3.18701 20.577 3.18701Z" fill="#F89C1C"/>
</g>
<path id="Vector_4" d="M33.691 4.78374C33.319 4.68834 32.924 4.63903 32.518 4.63903C30.698 4.63903 28.677 5.64774 27.68 8.14218C27.131 9.57109 27.158 11.2358 27.753 12.7087C28.299 14.0604 29.261 15.0734 30.459 15.5601C32.967 16.6685 35.961 15.6073 37.199 13.1943L35.157 12.1095C34.497 13.4333 33.122 13.8171 32.023 13.5995C30.999 13.398 29.858 12.6079 29.73 10.9968L29.719 10.8585H37.371C37.375 10.8092 37.381 10.761 37.389 10.717C37.387 10.6591 37.394 10.5702 37.409 10.4769C37.611 7.02949 35.532 5.25326 33.691 4.78267V4.78374ZM29.845 9.0512L29.877 8.89683C30.195 7.39074 31.532 6.74006 32.641 6.79366C33.908 6.84297 34.84 7.67159 35.015 8.90648L35.036 9.05227H29.846L29.845 9.0512ZM18.087 4.78374C17.715 4.68834 17.32 4.63903 16.914 4.63903C15.094 4.63903 13.073 5.64774 12.076 8.14218C11.527 9.57109 11.554 11.2358 12.149 12.7087C12.695 14.0604 13.657 15.0734 14.855 15.5601C17.363 16.6685 20.357 15.6073 21.595 13.1943L19.553 12.1095C18.893 13.4333 17.518 13.8171 16.419 13.5995C15.395 13.398 14.254 12.6079 14.126 10.9968L14.115 10.8585H21.767C21.771 10.8092 21.777 10.761 21.785 10.717C21.783 10.6591 21.79 10.5702 21.805 10.4769C22.007 7.02949 19.928 5.25326 18.087 4.78267V4.78374ZM14.241 9.0512L14.273 8.89683C14.591 7.39074 15.925 6.74006 17.037 6.79366C18.304 6.84297 19.236 7.67159 19.411 8.90648L19.432 9.05227H14.242L14.241 9.0512ZM23.365 15.6298H25.839V-0.000392889H23.365V15.6298ZM8.183 7.73484L8.103 7.70482V7.35643L8.17 7.32213C9.461 6.65645 10.172 5.36474 10.072 3.86615C9.962 2.21534 8.921 0.821797 7.42 0.31369C6.878 0.103587 6.293 -0.00146484 5.676 -0.00146484H0V15.6234C0.162 15.6169 0.36 15.6137 0.586 15.6137C0.985 15.6137 1.473 15.6223 2.002 15.6309C4.061 15.6652 6.88 15.7123 7.731 15.3286C9.679 14.7401 10.584 12.9349 10.624 11.4041C10.667 9.70723 9.732 8.30083 8.184 7.73484H8.183ZM2.557 2.42973H5.552C6.189 2.42973 6.697 2.62911 7.063 3.02145C7.629 3.61853 7.774 4.47395 7.442 5.25219C7.115 6.01542 6.418 6.48493 5.636 6.48493C5.58 6.48493 5.522 6.48279 5.464 6.47743H2.557V2.42973ZM7.898 11.8651C7.553 12.6637 6.822 13.1396 5.963 13.1396C5.901 13.1396 5.839 13.1375 5.775 13.1321H2.557V8.79607H5.697C6.47 8.79607 7.065 9.00617 7.465 9.41995C8.091 10.0996 8.256 11.0365 7.898 11.8661V11.8651ZM44.313 13.2661C43.765 13.592 42.899 13.5899 42.508 13.0742C42.177 12.7119 42.139 12.2038 42.129 11.7161V7.24281H44.613V5.01207H42.129V1.68579H39.655V5.01314H37.875V7.24388H39.655V12.2392C39.655 13.4505 39.97 14.396 40.592 15.0466C41.674 16.2311 43.605 16.1968 45 15.5537L44.313 13.2672V13.2661Z" fill="black"/>
</g>
</svg>
