<svg viewBox="0 0 123 28" xmlns="http://www.w3.org/2000/svg"><path d="M45 18.804V5.764c0-.485.185-.9.554-1.245.369-.346.812-.519 1.329-.519s.955.173 1.313.519c.37.345.554.76.554 1.244v13.04c0 1.78-.67 3.3-2.01 4.565-1.35 1.255-2.974 1.882-4.873 1.882-.517 0-.955-.173-1.313-.519a1.6 1.6 0 01-.554-1.23c0-.484.185-.899.554-1.244a1.821 1.821 0 011.313-.519c.865 0 1.603-.287 2.215-.86.612-.573.918-1.264.918-2.074zm25.642 3.324c-2.081 2.081-4.587 3.122-7.517 3.122s-5.43-1.04-7.503-3.122c-2.081-2.072-3.122-4.573-3.122-7.503 0-2.93 1.04-5.436 3.122-7.517C57.694 5.036 60.195 4 63.125 4s5.436 1.036 7.517 3.108c2.072 2.081 3.108 4.587 3.108 7.517 0 2.93-1.036 5.43-3.108 7.503zM67.99 9.76c-1.35-1.34-2.972-2.011-4.864-2.011s-3.509.67-4.85 2.011c-1.35 1.35-2.025 2.972-2.025 4.864s.675 3.509 2.025 4.85c1.341 1.35 2.958 2.025 4.85 2.025 1.892 0 3.514-.675 4.864-2.025 1.34-1.341 2.011-2.958 2.011-4.85 0-1.892-.67-3.514-2.011-4.864zm26.403 12.367c-2.081 2.081-4.587 3.122-7.517 3.122s-5.43-1.04-7.503-3.122c-2.081-2.072-3.122-4.573-3.122-7.503 0-2.93 1.04-5.436 3.122-7.517C81.444 5.036 83.945 4 86.875 4s5.436 1.036 7.517 3.108c2.072 2.081 3.108 4.587 3.108 7.517 0 2.93-1.036 5.43-3.108 7.503zM91.74 9.76c-1.35-1.34-2.972-2.011-4.864-2.011s-3.509.67-4.85 2.011C80.675 11.111 80 12.733 80 14.625s.675 3.509 2.025 4.85c1.341 1.35 2.958 2.025 4.85 2.025 1.892 0 3.514-.675 4.864-2.025 1.34-1.341 2.011-2.958 2.011-4.85 0-1.892-.67-3.514-2.011-4.864zm18.605 11.364c-.14-.25-1.993-3.288-5.555-9.114v11.495c0 .483-.174.892-.522 1.227a1.72 1.72 0 01-1.255.517 1.67 1.67 0 01-1.24-.517 1.636 1.636 0 01-.522-1.227V5.746c0-.394.12-.744.358-1.05.24-.314.553-.526.941-.634a1.775 1.775 0 011.986.783l7.347 12.012 7.348-12.012c.199-.335.482-.577.85-.724a1.86 1.86 0 011.136-.06c.378.109.687.32.926.636.239.305.358.655.358 1.049v17.76c0 .483-.17.892-.508 1.227a1.72 1.72 0 01-1.254.517 1.72 1.72 0 01-1.255-.517 1.66 1.66 0 01-.507-1.227V12.011c-3.528 5.826-5.385 8.86-5.57 9.102-.278.363-.781 1.012-1.531 1.012s-1.319-.625-1.53-1zM18.75 19.333c0 4.51-3.638 8.167-8.125 8.167V8.167C10.625 3.657 14.263 0 18.75 0v19.333z" fill="#3D3F56"></path><circle fill="#F64343" cx="4.063" cy="23.438" r="4.063"></circle></svg>