<svg xmlns="http://www.w3.org/2000/svg" width="393.75" height="98" viewBox="0 0 393.75 98">
  <defs>
    <style>
      .cls-1 {
        fill: #e30613;
        fill-rule: evenodd;
      }
    </style>
  </defs>
  <path id="mts-logo" class="cls-1" d="M995.009,182.253c-7.305,0-15.966,7.023-23.11,18.83-7.446,12.228-11.888,27.366-11.888,40.512,0,19.245,10.8,38.653,35,38.653,24.171,0,35-19.408,35-38.653,0-13.146-4.44-28.284-11.85-40.512C1010.95,189.276,1002.29,182.253,995.009,182.253ZM1184,211.127h24.5V275h26.25V211.127h24.49V187.5H1184v23.624Zm131.24,0h38.5V187.5h-38.5c-35.37,0-54.26,17.586-54.26,43.747S1279.87,275,1315.24,275h38.5V251.374h-38.5c-16.37,0-27.13-5.851-27.13-20.124S1298.87,211.127,1315.24,211.127ZM1130.61,187.5l-13.99,52.225L1102.63,187.5h-46.37V275h26.24V203.83L1101.57,275h30.1l19.08-71.213V275H1177V187.5h-46.39Z" transform="translate(-960 -182.25)"/>
</svg>
