<?xml version="1.0" encoding="utf-8"?>
<!-- Generator: Adobe Illustrator 26.2.1, SVG Export Plug-In . SVG Version: 6.00 Build 0)  -->
<svg version="1.1" id="a" xmlns="http://www.w3.org/2000/svg" xmlns:xlink="http://www.w3.org/1999/xlink" x="0px" y="0px"
	 viewBox="0 0 850.4 850.4" style="enable-background:new 0 0 850.4 850.4;" xml:space="preserve">
<style type="text/css">
	.st0{clip-path:url(#SVGID_00000021110043437966076930000000090355569493234856_);}
	.st1{fill:#E40523;}
	.st2{fill:#FFFFFF;}
</style>
<g>
	<defs>
		<rect id="SVGID_1_" width="850.4" height="850.4"/>
	</defs>
	<clipPath id="SVGID_00000036974537197579106570000018262975471776660376_">
		<use xlink:href="#SVGID_1_"  style="overflow:visible;"/>
	</clipPath>
	<g style="clip-path:url(#SVGID_00000036974537197579106570000018262975471776660376_);">
		<g>
			<path class="st1" d="M850.4,0H0v850.4h850.4V0z"/>
			<path class="st2" d="M258.7,65.4l-62.5,129.8L133.7,65.4H65.5v196.2h47.8V121.2l61.1,118.6H218l61.1-118.6v140.4H327V65.4H258.7
				L258.7,65.4z"/>
			<path class="st2" d="M566.6,65.4v39.1H652l-0.2,157.1h47.8l0.2-157.1h85.5V65.4L566.6,65.4L566.6,65.4z"/>
			<path class="st2" d="M737.4,719.5c-1.2,7.8-4.3,14.2-9.4,19.1c-4.8,4.6-11.2,7.8-19.2,9.7c-7.9,1.8-19.4,2.9-31.7,2.9
				s-23.9-1.6-33.4-4.9c-9.2-3.1-16.5-8.6-21.6-16.3c-5.2-7.7-7.8-18.9-7.8-33.1v-20.1c0-14.3,2.6-25.4,7.8-33.1
				c5.1-7.7,12.4-13.1,21.6-16.3c9.5-3.2,20.7-4.9,33.4-4.9s23.8,1,31.7,2.9c8,1.8,14.4,5.1,19.2,9.7c5,4.9,8.2,11.3,9.4,19.1h47.9
				c-1.3-16.2-6.8-30-16.4-41c-8.8-10.1-20.9-17.5-36-22c-14.7-4.4-33.9-6.7-55.7-6.7c-22.9,0-42.8,3.3-59.2,9.8
				c-16.6,6.6-29.4,17.6-38.2,32.7c-8.5,14.5-12.9,33.8-13.2,57.5v2.2l2.6,0.1l-2.6,0.1v2.2c0.3,23.7,4.7,43,13.2,57.5
				c8.8,15.1,21.7,26.1,38.2,32.7c16.3,6.5,36.2,9.8,59.2,9.8s41.1-2.3,55.7-6.7c15.1-4.5,27.2-11.9,36-22c9.6-11,15.1-24.8,16.4-41
				L737.4,719.5L737.4,719.5L737.4,719.5z"/>
		</g>
	</g>
</g>
</svg>
