<svg width="292" height="49" viewBox="0 0 292 49" fill="none" xmlns="http://www.w3.org/2000/svg">
<path d="M29.5996 20.2H48.1996V29.7H29.5996V48.3H20.1996V29.6H1.59961V20.1H20.1996V1.5H29.5996V20.2ZM57.5996 1.5V48.3H66.9996V1.5H57.5996Z" fill="#00AAE6"/>
<path d="M108 10.7969H80V16.9969H90.9V38.8969H97.1V16.9969H108V10.7969Z" fill="black"/>
<path d="M120.3 10.7031H113.9V17.0031V38.9031H120.3V10.7031Z" fill="black"/>
<path d="M134.301 10.6273H140.449V38.9163H134.301V10.6273Z" fill="black"/>
<path d="M156.795 17.6594C160.692 17.6594 164.269 19.9498 164.269 25.6558V38.9163H158.402V26.9417C158.402 24.2092 156.955 22.9234 154.826 22.9234C152.897 22.9234 151.008 24.1691 151.008 27.0221V38.9163H145.141V18.1416H150.767V20.5526C151.772 19.0658 153.861 17.6594 156.795 17.6594Z" fill="black"/>
<path d="M179.967 17.6594C183.865 17.6594 187.441 19.9498 187.441 25.6558V38.9163H181.575V26.9417C181.575 24.2092 180.128 22.9234 177.998 22.9234C176.07 22.9234 174.181 24.1691 174.181 27.0221V38.9163H168.314V18.1416H173.94V20.5526C174.944 19.0658 177.034 17.6594 179.967 17.6594Z" fill="black"/>
<path d="M200.85 17.6594C206.998 17.6594 211.297 21.9992 211.297 28.549C211.297 35.0989 206.998 39.3985 200.85 39.3985C194.662 39.3985 190.362 35.0989 190.362 28.549C190.362 21.9992 194.662 17.6594 200.85 17.6594ZM200.85 34.3354C203.703 34.3354 205.431 31.9244 205.431 28.549C205.431 25.1335 203.703 22.7225 200.85 22.7225C197.957 22.7225 196.229 25.1335 196.229 28.549C196.229 31.9244 197.957 34.3354 200.85 34.3354Z" fill="black"/>
<path d="M225.515 18.1416V22.9234H221.537V31.2011C221.537 33.4112 222.582 33.9336 224.309 33.9336H225.515V38.9565H223.265C218.121 38.9565 215.67 36.9473 215.67 31.6431V22.9234H212.496V18.1416H215.67V12.8374H221.537V18.1416H225.515Z" fill="black"/>
<path d="M247.22 28.1874V30.1965H233.197V30.2769C233.197 32.8084 235.085 34.7774 237.898 34.7774C239.907 34.7774 241.072 33.7728 241.354 32.9692H247.02C246.457 35.8624 243.684 39.3985 237.777 39.3985C231.469 39.3985 227.29 35.3802 227.29 28.6294C227.29 21.8384 231.428 17.6594 237.456 17.6594C243.403 17.6594 247.22 21.7581 247.22 28.1874ZM237.496 22.2403C235.165 22.2403 233.558 23.6869 233.237 26.0978H241.514C241.354 23.727 239.827 22.2403 237.496 22.2403Z" fill="black"/>
<path d="M259.613 34.3354C262.024 34.3354 263.109 32.8486 263.471 31.4422H269.056C268.695 35.9427 265.118 39.3985 259.573 39.3985C253.224 39.3985 249.246 34.8176 249.246 28.549C249.246 22.3206 253.224 17.6594 259.573 17.6594C265.319 17.6594 268.574 21.3964 269.016 25.5755H263.39C262.989 24.2494 261.863 22.7225 259.573 22.7225C256.841 22.7225 255.113 25.0531 255.113 28.549C255.113 32.0851 256.881 34.3354 259.613 34.3354Z" fill="black"/>
<path d="M283.706 17.6594C287.604 17.6594 291.18 19.9498 291.18 25.6558V38.9163H285.313V26.9417C285.313 24.2092 283.867 22.9234 281.737 22.9234C279.808 22.9234 277.919 24.1691 277.919 27.0221V38.9163H272.053V9.70312H277.919V20.2311C278.964 18.8649 280.973 17.6594 283.706 17.6594Z" fill="black"/>
</svg>
