<svg width="163" height="24" viewBox="0 0 163 24" fill="none" xmlns="http://www.w3.org/2000/svg">
<g clip-path="url(#clip0_6194_16894)">
<path d="M102.11 13.0412L96.0119 7.00098L94.2861 8.78429L98.5431 13.0412L94.2861 17.3557L96.0119 19.139L102.11 13.0412Z" fill="#454CEE"/>
<path d="M5.17874 18.9662C3.97068 18.9662 2.93521 18.7361 2.30242 18.2184C1.26694 17.4706 0.864258 16.4926 0.864258 14.9969V3.8368H3.45294V7.28838H7.19216V9.81954H3.45294V14.5367C3.45294 15.4571 3.62552 15.9173 4.08573 16.205C4.37337 16.3775 4.8911 16.4926 5.69647 16.4926C6.21421 16.4926 7.19216 16.4351 7.19216 16.4351V18.7937C7.19216 18.7937 6.27174 18.9662 5.17874 18.9662ZM75.9362 16.6077C74.7856 18.2759 73.1174 19.1388 70.8738 19.1388C69.033 19.1388 67.4798 18.5635 66.3293 17.413C65.1787 16.2625 64.6035 14.8243 64.6035 13.0985C64.6035 11.3728 65.1787 9.9346 66.3293 8.78407C67.4798 7.63354 68.9179 7.05828 70.7013 7.05828C72.3695 7.05828 73.7502 7.63354 74.8432 8.84159C75.9362 9.99212 76.4539 11.4878 76.4539 13.1561C76.4539 13.7889 76.3389 14.2491 76.3389 14.2491H67.3647C67.5373 15.0544 67.94 15.6297 68.5728 16.0899C69.2056 16.5501 70.0109 16.7802 70.9314 16.7802C72.197 16.7802 73.1749 16.32 73.8077 15.3996L75.9362 16.6077ZM67.3647 12.0055H73.8077C73.6351 11.1426 73.2899 10.5099 72.7147 10.0496C72.1394 9.58944 71.4491 9.35933 70.6437 9.35933C69.7808 9.35933 69.033 9.58944 68.4577 10.1072C67.94 10.6249 67.5373 11.2577 67.3647 12.0055ZM45.8499 16.6077C44.6993 18.2759 43.0311 19.1388 40.7876 19.1388C38.9467 19.1388 37.3935 18.5635 36.243 17.413C35.0924 16.2625 34.5172 14.8243 34.5172 13.0985C34.5172 11.3728 35.0924 9.9346 36.243 8.78407C37.3935 7.63354 38.8317 7.05828 40.615 7.05828C42.2832 7.05828 43.6639 7.63354 44.7569 8.84159C45.8499 9.99212 46.3676 11.4878 46.3676 13.1561C46.3676 13.7889 46.2526 14.2491 46.2526 14.2491H37.2785C37.451 15.0544 37.8537 15.6297 38.4865 16.0899C39.1193 16.5501 39.9247 16.7802 40.8451 16.7802C42.1107 16.7802 43.0886 16.32 43.7214 15.3996L45.8499 16.6077ZM37.2785 12.0055H43.7214C43.5488 11.1426 43.2037 10.5099 42.6284 10.0496C42.0531 9.58944 41.3628 9.35933 40.5574 9.35933C39.6946 9.35933 38.9467 9.58944 38.3714 10.1072C37.7962 10.6249 37.451 11.2577 37.2785 12.0055ZM12.9448 4.6997C12.9448 3.8368 12.2545 3.14648 11.3916 3.14648C10.5287 3.14648 9.83837 3.8368 9.83837 4.6997C9.83837 5.56259 10.5287 6.25291 11.3916 6.25291C12.2545 6.25291 12.9448 5.56259 12.9448 4.6997ZM60.6917 18.8512L63.683 7.34591H61.0368L59.196 15.4571H59.0234L56.8949 7.34591H54.1912L52.0052 15.4571H51.8326L49.9918 7.34591H47.3456L50.3369 18.8512H53.3858L55.4568 10.74H55.6294L57.7003 18.8512H60.6917ZM32.5613 18.8512V11.7179C32.5613 10.2798 32.1586 9.12923 31.3532 8.32386C30.5479 7.46096 29.5124 7.05828 28.1893 7.05828C26.8086 7.05828 25.4855 7.80612 24.7952 9.01417H24.6226C24.0474 7.80612 22.8393 7.05828 21.4587 7.05828C20.1356 7.05828 18.9851 7.69107 18.3523 8.72654H18.2372V7.34591H15.591V18.8512H18.2372V12.4082C18.2372 11.4878 18.4673 10.74 18.9851 10.2222C19.4453 9.76202 20.0205 9.47438 20.7109 9.47438C21.3436 9.47438 21.8614 9.70449 22.2065 10.1072C22.5517 10.5099 22.7243 11.1426 22.7243 11.8905V18.8512H25.3705V12.4082C25.3705 11.4878 25.6006 10.74 26.0608 10.2222C26.4635 9.76202 27.0963 9.53191 27.7866 9.53191C28.4194 9.53191 28.9371 9.76202 29.3398 10.1647C29.7425 10.5674 29.9151 11.2002 29.9151 11.948V18.9087H32.5613V18.8512ZM12.7147 18.8512V7.34591H10.0685V18.8512H12.7147ZM89.1672 17.3555C90.2602 16.205 90.8355 14.7668 90.8355 13.041C90.8355 11.3728 90.2602 9.87707 89.1672 8.72654C88.0742 7.57601 86.6936 7.00075 85.1979 7.00075C83.7022 7.00075 82.2065 7.69107 81.2861 8.72654H81.1135V3.8368H78.4673V18.7937H81.1135V17.3555H81.2861C82.2065 18.4485 83.7597 19.1388 85.2554 19.1388C86.8086 19.1388 88.0742 18.506 89.1672 17.3555ZM87.2113 10.5099C87.9017 11.2002 88.1893 12.0055 88.1893 13.041C88.1893 14.0765 87.8441 14.8819 87.2113 15.5722C86.521 16.2625 85.7156 16.5501 84.6802 16.5501C83.6447 16.5501 82.8393 16.205 82.149 15.5722C81.4587 14.8819 81.1711 14.0765 81.1711 13.041C81.1711 12.0055 81.5162 11.2002 82.149 10.5099C82.8393 9.81954 83.6447 9.53191 84.6802 9.53191C85.7156 9.53191 86.521 9.87707 87.2113 10.5099Z" fill="#26325C"/>
<path d="M5.17874 18.9662C3.97068 18.9662 2.93521 18.7361 2.30242 18.2184C1.26694 17.4706 0.864258 16.4926 0.864258 14.9969V3.8368H3.45294V7.28838H7.19216V9.81954H3.45294V14.5367C3.45294 15.4571 3.62552 15.9173 4.08573 16.205C4.37337 16.3775 4.8911 16.4926 5.69647 16.4926C6.21421 16.4926 7.19216 16.4351 7.19216 16.4351V18.7937C7.19216 18.7937 6.27174 18.9662 5.17874 18.9662ZM75.9362 16.6077C74.7856 18.2759 73.1174 19.1388 70.8738 19.1388C69.033 19.1388 67.4798 18.5635 66.3293 17.413C65.1787 16.2625 64.6035 14.8243 64.6035 13.0985C64.6035 11.3728 65.1787 9.9346 66.3293 8.78407C67.4798 7.63354 68.9179 7.05828 70.7013 7.05828C72.3695 7.05828 73.7502 7.63354 74.8432 8.84159C75.9362 9.99212 76.4539 11.4878 76.4539 13.1561C76.4539 13.7889 76.3389 14.2491 76.3389 14.2491H67.3647C67.5373 15.0544 67.94 15.6297 68.5728 16.0899C69.2056 16.5501 70.0109 16.7802 70.9314 16.7802C72.197 16.7802 73.1749 16.32 73.8077 15.3996L75.9362 16.6077ZM67.3647 12.0055H73.8077C73.6351 11.1426 73.2899 10.5099 72.7147 10.0496C72.1394 9.58944 71.4491 9.35933 70.6437 9.35933C69.7808 9.35933 69.033 9.58944 68.4577 10.1072C67.94 10.6249 67.5373 11.2577 67.3647 12.0055ZM45.8499 16.6077C44.6993 18.2759 43.0311 19.1388 40.7876 19.1388C38.9467 19.1388 37.3935 18.5635 36.243 17.413C35.0924 16.2625 34.5172 14.8243 34.5172 13.0985C34.5172 11.3728 35.0924 9.9346 36.243 8.78407C37.3935 7.63354 38.8317 7.05828 40.615 7.05828C42.2832 7.05828 43.6639 7.63354 44.7569 8.84159C45.8499 9.99212 46.3676 11.4878 46.3676 13.1561C46.3676 13.7889 46.2526 14.2491 46.2526 14.2491H37.2785C37.451 15.0544 37.8537 15.6297 38.4865 16.0899C39.1193 16.5501 39.9247 16.7802 40.8451 16.7802C42.1107 16.7802 43.0886 16.32 43.7214 15.3996L45.8499 16.6077ZM37.2785 12.0055H43.7214C43.5488 11.1426 43.2037 10.5099 42.6284 10.0496C42.0531 9.58944 41.3628 9.35933 40.5574 9.35933C39.6946 9.35933 38.9467 9.58944 38.3714 10.1072C37.7962 10.6249 37.451 11.2577 37.2785 12.0055ZM12.9448 4.6997C12.9448 3.8368 12.2545 3.14648 11.3916 3.14648C10.5287 3.14648 9.83837 3.8368 9.83837 4.6997C9.83837 5.56259 10.5287 6.25291 11.3916 6.25291C12.2545 6.25291 12.9448 5.56259 12.9448 4.6997ZM60.6917 18.8512L63.683 7.34591H61.0368L59.196 15.4571H59.0234L56.8949 7.34591H54.1912L52.0052 15.4571H51.8326L49.9918 7.34591H47.3456L50.3369 18.8512H53.3858L55.4568 10.74H55.6294L57.7003 18.8512H60.6917ZM32.5613 18.8512V11.7179C32.5613 10.2798 32.1586 9.12923 31.3532 8.32386C30.5479 7.46096 29.5124 7.05828 28.1893 7.05828C26.8086 7.05828 25.4855 7.80612 24.7952 9.01417H24.6226C24.0474 7.80612 22.8393 7.05828 21.4587 7.05828C20.1356 7.05828 18.9851 7.69107 18.3523 8.72654H18.2372V7.34591H15.591V18.8512H18.2372V12.4082C18.2372 11.4878 18.4673 10.74 18.9851 10.2222C19.4453 9.76202 20.0205 9.47438 20.7109 9.47438C21.3436 9.47438 21.8614 9.70449 22.2065 10.1072C22.5517 10.5099 22.7243 11.1426 22.7243 11.8905V18.8512H25.3705V12.4082C25.3705 11.4878 25.6006 10.74 26.0608 10.2222C26.4635 9.76202 27.0963 9.53191 27.7866 9.53191C28.4194 9.53191 28.9371 9.76202 29.3398 10.1647C29.7425 10.5674 29.9151 11.2002 29.9151 11.948V18.9087H32.5613V18.8512ZM12.7147 18.8512V7.34591H10.0685V18.8512H12.7147ZM89.1672 17.3555C90.2602 16.205 90.8355 14.7668 90.8355 13.041C90.8355 11.3728 90.2602 9.87707 89.1672 8.72654C88.0742 7.57601 86.6936 7.00075 85.1979 7.00075C83.7022 7.00075 82.2065 7.69107 81.2861 8.72654H81.1135V3.8368H78.4673V18.7937H81.1135V17.3555H81.2861C82.2065 18.4485 83.7597 19.1388 85.2554 19.1388C86.8086 19.1388 88.0742 18.506 89.1672 17.3555ZM87.2113 10.5099C87.9017 11.2002 88.1893 12.0055 88.1893 13.041C88.1893 14.0765 87.8441 14.8819 87.2113 15.5722C86.521 16.2625 85.7156 16.5501 84.6802 16.5501C83.6447 16.5501 82.8393 16.205 82.149 15.5722C81.4587 14.8819 81.1711 14.0765 81.1711 13.041C81.1711 12.0055 81.5162 11.2002 82.149 10.5099C82.8393 9.81954 83.6447 9.53191 84.6802 9.53191C85.7156 9.53191 86.521 9.87707 87.2113 10.5099Z" fill="black" fill-opacity="0.2"/>
<path d="M5.17874 18.9662C3.97068 18.9662 2.93521 18.7361 2.30242 18.2184C1.26694 17.4706 0.864258 16.4926 0.864258 14.9969V3.8368H3.45294V7.28838H7.19216V9.81954H3.45294V14.5367C3.45294 15.4571 3.62552 15.9173 4.08573 16.205C4.37337 16.3775 4.8911 16.4926 5.69647 16.4926C6.21421 16.4926 7.19216 16.4351 7.19216 16.4351V18.7937C7.19216 18.7937 6.27174 18.9662 5.17874 18.9662ZM75.9362 16.6077C74.7856 18.2759 73.1174 19.1388 70.8738 19.1388C69.033 19.1388 67.4798 18.5635 66.3293 17.413C65.1787 16.2625 64.6035 14.8243 64.6035 13.0985C64.6035 11.3728 65.1787 9.9346 66.3293 8.78407C67.4798 7.63354 68.9179 7.05828 70.7013 7.05828C72.3695 7.05828 73.7502 7.63354 74.8432 8.84159C75.9362 9.99212 76.4539 11.4878 76.4539 13.1561C76.4539 13.7889 76.3389 14.2491 76.3389 14.2491H67.3647C67.5373 15.0544 67.94 15.6297 68.5728 16.0899C69.2056 16.5501 70.0109 16.7802 70.9314 16.7802C72.197 16.7802 73.1749 16.32 73.8077 15.3996L75.9362 16.6077ZM67.3647 12.0055H73.8077C73.6351 11.1426 73.2899 10.5099 72.7147 10.0496C72.1394 9.58944 71.4491 9.35933 70.6437 9.35933C69.7808 9.35933 69.033 9.58944 68.4577 10.1072C67.94 10.6249 67.5373 11.2577 67.3647 12.0055ZM45.8499 16.6077C44.6993 18.2759 43.0311 19.1388 40.7876 19.1388C38.9467 19.1388 37.3935 18.5635 36.243 17.413C35.0924 16.2625 34.5172 14.8243 34.5172 13.0985C34.5172 11.3728 35.0924 9.9346 36.243 8.78407C37.3935 7.63354 38.8317 7.05828 40.615 7.05828C42.2832 7.05828 43.6639 7.63354 44.7569 8.84159C45.8499 9.99212 46.3676 11.4878 46.3676 13.1561C46.3676 13.7889 46.2526 14.2491 46.2526 14.2491H37.2785C37.451 15.0544 37.8537 15.6297 38.4865 16.0899C39.1193 16.5501 39.9247 16.7802 40.8451 16.7802C42.1107 16.7802 43.0886 16.32 43.7214 15.3996L45.8499 16.6077ZM37.2785 12.0055H43.7214C43.5488 11.1426 43.2037 10.5099 42.6284 10.0496C42.0531 9.58944 41.3628 9.35933 40.5574 9.35933C39.6946 9.35933 38.9467 9.58944 38.3714 10.1072C37.7962 10.6249 37.451 11.2577 37.2785 12.0055ZM12.9448 4.6997C12.9448 3.8368 12.2545 3.14648 11.3916 3.14648C10.5287 3.14648 9.83837 3.8368 9.83837 4.6997C9.83837 5.56259 10.5287 6.25291 11.3916 6.25291C12.2545 6.25291 12.9448 5.56259 12.9448 4.6997ZM60.6917 18.8512L63.683 7.34591H61.0368L59.196 15.4571H59.0234L56.8949 7.34591H54.1912L52.0052 15.4571H51.8326L49.9918 7.34591H47.3456L50.3369 18.8512H53.3858L55.4568 10.74H55.6294L57.7003 18.8512H60.6917ZM32.5613 18.8512V11.7179C32.5613 10.2798 32.1586 9.12923 31.3532 8.32386C30.5479 7.46096 29.5124 7.05828 28.1893 7.05828C26.8086 7.05828 25.4855 7.80612 24.7952 9.01417H24.6226C24.0474 7.80612 22.8393 7.05828 21.4587 7.05828C20.1356 7.05828 18.9851 7.69107 18.3523 8.72654H18.2372V7.34591H15.591V18.8512H18.2372V12.4082C18.2372 11.4878 18.4673 10.74 18.9851 10.2222C19.4453 9.76202 20.0205 9.47438 20.7109 9.47438C21.3436 9.47438 21.8614 9.70449 22.2065 10.1072C22.5517 10.5099 22.7243 11.1426 22.7243 11.8905V18.8512H25.3705V12.4082C25.3705 11.4878 25.6006 10.74 26.0608 10.2222C26.4635 9.76202 27.0963 9.53191 27.7866 9.53191C28.4194 9.53191 28.9371 9.76202 29.3398 10.1647C29.7425 10.5674 29.9151 11.2002 29.9151 11.948V18.9087H32.5613V18.8512ZM12.7147 18.8512V7.34591H10.0685V18.8512H12.7147ZM89.1672 17.3555C90.2602 16.205 90.8355 14.7668 90.8355 13.041C90.8355 11.3728 90.2602 9.87707 89.1672 8.72654C88.0742 7.57601 86.6936 7.00075 85.1979 7.00075C83.7022 7.00075 82.2065 7.69107 81.2861 8.72654H81.1135V3.8368H78.4673V18.7937H81.1135V17.3555H81.2861C82.2065 18.4485 83.7597 19.1388 85.2554 19.1388C86.8086 19.1388 88.0742 18.506 89.1672 17.3555ZM87.2113 10.5099C87.9017 11.2002 88.1893 12.0055 88.1893 13.041C88.1893 14.0765 87.8441 14.8819 87.2113 15.5722C86.521 16.2625 85.7156 16.5501 84.6802 16.5501C83.6447 16.5501 82.8393 16.205 82.149 15.5722C81.4587 14.8819 81.1711 14.0765 81.1711 13.041C81.1711 12.0055 81.5162 11.2002 82.149 10.5099C82.8393 9.81954 83.6447 9.53191 84.6802 9.53191C85.7156 9.53191 86.521 9.87707 87.2113 10.5099Z" fill="black" fill-opacity="0.2"/>
<path d="M5.17874 18.9662C3.97068 18.9662 2.93521 18.7361 2.30242 18.2184C1.26694 17.4706 0.864258 16.4926 0.864258 14.9969V3.8368H3.45294V7.28838H7.19216V9.81954H3.45294V14.5367C3.45294 15.4571 3.62552 15.9173 4.08573 16.205C4.37337 16.3775 4.8911 16.4926 5.69647 16.4926C6.21421 16.4926 7.19216 16.4351 7.19216 16.4351V18.7937C7.19216 18.7937 6.27174 18.9662 5.17874 18.9662ZM75.9362 16.6077C74.7856 18.2759 73.1174 19.1388 70.8738 19.1388C69.033 19.1388 67.4798 18.5635 66.3293 17.413C65.1787 16.2625 64.6035 14.8243 64.6035 13.0985C64.6035 11.3728 65.1787 9.9346 66.3293 8.78407C67.4798 7.63354 68.9179 7.05828 70.7013 7.05828C72.3695 7.05828 73.7502 7.63354 74.8432 8.84159C75.9362 9.99212 76.4539 11.4878 76.4539 13.1561C76.4539 13.7889 76.3389 14.2491 76.3389 14.2491H67.3647C67.5373 15.0544 67.94 15.6297 68.5728 16.0899C69.2056 16.5501 70.0109 16.7802 70.9314 16.7802C72.197 16.7802 73.1749 16.32 73.8077 15.3996L75.9362 16.6077ZM67.3647 12.0055H73.8077C73.6351 11.1426 73.2899 10.5099 72.7147 10.0496C72.1394 9.58944 71.4491 9.35933 70.6437 9.35933C69.7808 9.35933 69.033 9.58944 68.4577 10.1072C67.94 10.6249 67.5373 11.2577 67.3647 12.0055ZM45.8499 16.6077C44.6993 18.2759 43.0311 19.1388 40.7876 19.1388C38.9467 19.1388 37.3935 18.5635 36.243 17.413C35.0924 16.2625 34.5172 14.8243 34.5172 13.0985C34.5172 11.3728 35.0924 9.9346 36.243 8.78407C37.3935 7.63354 38.8317 7.05828 40.615 7.05828C42.2832 7.05828 43.6639 7.63354 44.7569 8.84159C45.8499 9.99212 46.3676 11.4878 46.3676 13.1561C46.3676 13.7889 46.2526 14.2491 46.2526 14.2491H37.2785C37.451 15.0544 37.8537 15.6297 38.4865 16.0899C39.1193 16.5501 39.9247 16.7802 40.8451 16.7802C42.1107 16.7802 43.0886 16.32 43.7214 15.3996L45.8499 16.6077ZM37.2785 12.0055H43.7214C43.5488 11.1426 43.2037 10.5099 42.6284 10.0496C42.0531 9.58944 41.3628 9.35933 40.5574 9.35933C39.6946 9.35933 38.9467 9.58944 38.3714 10.1072C37.7962 10.6249 37.451 11.2577 37.2785 12.0055ZM12.9448 4.6997C12.9448 3.8368 12.2545 3.14648 11.3916 3.14648C10.5287 3.14648 9.83837 3.8368 9.83837 4.6997C9.83837 5.56259 10.5287 6.25291 11.3916 6.25291C12.2545 6.25291 12.9448 5.56259 12.9448 4.6997ZM60.6917 18.8512L63.683 7.34591H61.0368L59.196 15.4571H59.0234L56.8949 7.34591H54.1912L52.0052 15.4571H51.8326L49.9918 7.34591H47.3456L50.3369 18.8512H53.3858L55.4568 10.74H55.6294L57.7003 18.8512H60.6917ZM32.5613 18.8512V11.7179C32.5613 10.2798 32.1586 9.12923 31.3532 8.32386C30.5479 7.46096 29.5124 7.05828 28.1893 7.05828C26.8086 7.05828 25.4855 7.80612 24.7952 9.01417H24.6226C24.0474 7.80612 22.8393 7.05828 21.4587 7.05828C20.1356 7.05828 18.9851 7.69107 18.3523 8.72654H18.2372V7.34591H15.591V18.8512H18.2372V12.4082C18.2372 11.4878 18.4673 10.74 18.9851 10.2222C19.4453 9.76202 20.0205 9.47438 20.7109 9.47438C21.3436 9.47438 21.8614 9.70449 22.2065 10.1072C22.5517 10.5099 22.7243 11.1426 22.7243 11.8905V18.8512H25.3705V12.4082C25.3705 11.4878 25.6006 10.74 26.0608 10.2222C26.4635 9.76202 27.0963 9.53191 27.7866 9.53191C28.4194 9.53191 28.9371 9.76202 29.3398 10.1647C29.7425 10.5674 29.9151 11.2002 29.9151 11.948V18.9087H32.5613V18.8512ZM12.7147 18.8512V7.34591H10.0685V18.8512H12.7147ZM89.1672 17.3555C90.2602 16.205 90.8355 14.7668 90.8355 13.041C90.8355 11.3728 90.2602 9.87707 89.1672 8.72654C88.0742 7.57601 86.6936 7.00075 85.1979 7.00075C83.7022 7.00075 82.2065 7.69107 81.2861 8.72654H81.1135V3.8368H78.4673V18.7937H81.1135V17.3555H81.2861C82.2065 18.4485 83.7597 19.1388 85.2554 19.1388C86.8086 19.1388 88.0742 18.506 89.1672 17.3555ZM87.2113 10.5099C87.9017 11.2002 88.1893 12.0055 88.1893 13.041C88.1893 14.0765 87.8441 14.8819 87.2113 15.5722C86.521 16.2625 85.7156 16.5501 84.6802 16.5501C83.6447 16.5501 82.8393 16.205 82.149 15.5722C81.4587 14.8819 81.1711 14.0765 81.1711 13.041C81.1711 12.0055 81.5162 11.2002 82.149 10.5099C82.8393 9.81954 83.6447 9.53191 84.6802 9.53191C85.7156 9.53191 86.521 9.87707 87.2113 10.5099Z" fill="black" fill-opacity="0.2"/>
</g>
<path d="M114.878 15.084C114.229 16.0639 113.266 16.7321 111.945 16.7321C109.594 16.7321 108.071 15.1731 108.071 13.0795C108.071 10.8969 109.571 9.40473 111.676 9.40473C112.997 9.40473 113.87 9.87243 114.654 10.9192L116.557 9.67199C115.796 8.13525 113.96 7.04395 111.564 7.04395C107.892 7.04395 105.429 9.64971 105.429 13.0795C105.429 16.7321 107.959 19.0928 111.698 19.0928C113.714 19.0928 115.729 18.1129 116.692 16.2421L114.878 15.084Z" fill="#454CEE"/>
<path d="M151.627 17.322C150.534 16.1797 149.959 14.7519 149.959 13.0385C149.959 11.3822 150.534 9.89727 151.627 8.75501C152.72 7.61274 154.101 7.04161 155.596 7.04161C157.092 7.04161 158.588 7.72697 159.508 8.75501H159.681V3.90039H162.327V18.7498H159.681V17.322H159.508C158.588 18.4071 157.035 19.0925 155.539 19.0925C153.986 19.0925 152.72 18.4642 151.627 17.322ZM153.583 10.5255C152.893 11.2109 152.605 12.0105 152.605 13.0385C152.605 14.0665 152.95 14.8661 153.583 15.5515C154.273 16.2368 155.079 16.5224 156.114 16.5224C157.15 16.5224 157.955 16.1797 158.645 15.5515C159.336 14.8661 159.623 14.0665 159.623 13.0385C159.623 12.0105 159.278 11.2109 158.645 10.5255C157.955 9.84016 157.15 9.55459 156.114 9.55459C155.079 9.55459 154.273 9.89727 153.583 10.5255Z" fill="#454CEE"/>
<path d="M118.525 18.8305H121.171V3.90039H118.525V18.8305Z" fill="#454CEE"/>
<path d="M148.045 18.8179H145.405V17.6078C145.035 18.0574 144.568 18.4174 144.039 18.661C143.51 18.9046 142.933 19.0254 142.351 19.0144C139.181 19.0144 137.463 17.4087 137.463 13.8883V7.30859H140.106V13.6447C140.106 15.3185 140.611 16.6832 142.594 16.6832C143.904 16.6832 144.766 15.9786 145.405 14.703V7.30859H148.045V18.8179Z" fill="#454CEE"/>
<path d="M123.268 13.0795C123.268 16.5539 125.777 19.0928 129.281 19.0928C132.829 19.0928 135.316 16.5539 135.316 13.0795C135.316 9.5829 132.829 7.04395 129.281 7.04395C125.712 7.04395 123.268 9.5829 123.268 13.0795ZM125.82 13.0795C125.82 10.8078 127.313 9.40473 129.281 9.40473C131.228 9.40473 132.764 10.8301 132.764 13.0795C132.764 15.3067 131.336 16.7321 129.281 16.7321C127.226 16.7321 125.82 15.1731 125.82 13.0795Z" fill="#454CEE"/>
<defs>
<clipPath id="clip0_6194_16894">
<rect width="102.915" height="17.1429" fill="white" transform="translate(0 2.57129)"/>
</clipPath>
</defs>
</svg>
