<?xml version="1.0" encoding="UTF-8"?> <svg xmlns="http://www.w3.org/2000/svg" width="2394" height="759" viewBox="0 0 2394 759" fill="none"> <path fill-rule="evenodd" clip-rule="evenodd" d="M31.8956 318.327L31.2888 317.95L30.6621 317.605C24.6992 314.33 24.7189 305.494 30.6532 302.237L31.2841 301.89L31.8949 301.51L266.828 155.255L516.629 310.862L431.218 364.234L456.289 379.658L654.532 256.3L727.158 301.511L727.761 301.887L728.385 302.229C734.302 305.481 734.322 314.343 728.375 317.614L727.757 317.955L727.157 318.327L486.804 467.96L236.624 314.519L321.228 261.84L295.349 245.917L105.492 364.147L31.8956 318.327ZM131.219 380.163L359.666 522.389C365.802 525.643 372.615 527.338 379.52 527.338C386.426 527.338 393.239 525.643 399.374 522.389L461.054 483.991L210.877 330.552L131.219 380.163ZM485.944 499.255L412.559 544.941C402.423 550.511 391.063 553.429 379.52 553.429C367.977 553.429 356.618 550.511 346.481 544.941L18.0334 340.458C-5.97728 327.27 -5.97728 292.556 18.0334 279.379L242.13 139.87L242.122 139.865L267.879 123.833L267.886 123.837L346.481 74.9082C356.616 69.3336 367.975 66.4125 379.52 66.4125C391.064 66.4125 402.425 69.3336 412.559 74.9082L654.331 225.414L654.414 225.363L679.461 240.788L679.243 240.924L741.019 279.379C764.993 292.556 764.993 327.27 741.019 340.458L511.693 483.226L511.939 483.377L486.036 499.312L485.944 499.255ZM542.569 294.95L292.584 139.221L359.672 97.4575C365.805 94.1992 372.616 92.5037 379.52 92.5037C386.425 92.5037 393.236 94.1993 399.369 97.4575L629.618 240.791L542.569 294.95Z" fill="black"></path> <path fill-rule="evenodd" clip-rule="evenodd" d="M690.625 423.37L727.153 446.117L727.755 446.492L728.375 446.834C729.672 447.547 730.794 448.622 731.591 449.977C732.39 451.334 732.825 452.908 732.825 454.528C732.825 456.15 732.39 457.723 731.591 459.079C730.794 460.435 729.672 461.509 728.375 462.223L727.758 462.563L727.159 462.935L399.37 666.941C393.236 670.199 386.424 671.894 379.519 671.894C372.615 671.894 365.803 670.199 359.669 666.941L30.6337 462.2C29.3332 461.487 28.2081 460.412 27.4079 459.057C26.6064 457.697 26.1708 456.122 26.1708 454.498C26.1708 452.874 26.6064 451.299 27.4079 449.939C28.208 448.583 29.3331 447.508 30.6337 446.796L31.2746 446.445L31.8949 446.059L68.3814 423.343L43.677 407.963L18.0328 423.928C12.5775 426.916 8.02274 431.333 4.84898 436.713C1.67521 442.093 0 448.238 0 454.498C0 460.758 1.67521 466.903 4.84898 472.282C8.02274 477.662 18.0328 485.067 18.0328 485.067L346.481 689.49C356.615 695.065 367.975 697.986 379.519 697.986C391.063 697.986 402.424 695.065 412.558 689.49L741.018 485.067C746.458 482.075 750.999 477.66 754.162 472.286C757.326 466.911 758.995 460.778 758.995 454.528C758.995 448.279 757.326 442.145 754.162 436.77C750.999 431.397 746.458 426.981 741.018 423.989L715.328 407.991L690.625 423.37Z" fill="#888BAE"></path> <path d="M992.32 163.336V304H1018.6V163.336H1071.92V139.723H939V163.336H992.32ZM1113.69 304V223.639C1121.69 205.738 1134.51 196.852 1152.41 196.852C1156.85 196.852 1161.8 197.486 1167.01 198.756V171.08C1165.36 170.953 1162.69 170.826 1159.26 170.826C1137.3 170.826 1120.29 179.078 1107.72 200.787V174.508H1086.65V304H1113.69ZM1174.37 264.771C1174.37 278.355 1180.34 289.781 1189.48 296.51C1198.62 303.238 1209.92 306.92 1221.47 306.92C1242.29 306.92 1258.67 300.445 1271.87 283.688L1274.92 304H1292.95V222.115C1292.95 205.484 1288.12 192.789 1280.88 185.172C1277.2 181.49 1272.76 178.443 1267.3 176.031C1256.51 171.461 1245.85 170.064 1232.01 170.064C1217.79 170.064 1203.19 172.73 1188.08 177.936V201.295C1199.13 195.836 1212.84 193.043 1229.21 193.043C1253.97 193.043 1266.41 201.168 1266.41 217.418V229.098C1260.19 226.686 1253.59 224.654 1246.48 223.258C1239.24 221.861 1233.15 221.1 1227.95 221.1C1213.22 221.1 1200.78 224.146 1190.62 230.748C1180.46 237.35 1174.37 249.156 1174.37 264.771ZM1202.17 261.852C1202.17 248.141 1211.82 241.285 1230.99 241.285C1244.07 241.285 1255.88 244.586 1266.41 251.188V261.852C1262.22 269.342 1256.89 275.182 1250.16 279.498C1243.43 283.941 1236.58 286.1 1229.47 286.1C1211.31 286.1 1202.17 277.975 1202.17 261.852ZM1354.64 304V218.18C1362.64 201.168 1375.21 192.662 1392.1 192.662C1408.47 192.662 1420.15 202.564 1420.15 223.893V304H1447.19V216.656C1447.19 184.156 1423.58 170.064 1397.55 170.064C1377.24 170.064 1359.72 178.951 1348.68 197.359V174.508H1327.6V304H1354.64ZM1475 211.451C1475 264.264 1555.61 241.539 1555.61 268.58C1555.61 274.42 1552.95 278.736 1547.74 281.656C1542.54 284.576 1535.81 286.1 1527.81 286.1C1519.3 286.1 1510.42 285.084 1501.4 283.18C1492.39 281.275 1484.26 278.609 1477.28 274.928V297.271C1491.88 304.762 1508.64 308.443 1527.3 308.443C1544.06 308.443 1557.39 304.889 1567.42 297.525C1577.45 290.289 1582.4 280.641 1582.4 268.326C1582.53 218.18 1502.67 240.016 1501.78 209.928C1501.78 202.438 1504.58 197.613 1509.78 195.328C1514.99 193.043 1520.06 192.408 1528.06 192.408C1534.79 192.408 1542.15 193.297 1550.41 195.074C1558.53 196.852 1565.89 199.01 1572.5 201.549V179.205C1559.67 173.111 1545.46 170.064 1529.84 170.064C1494.42 170.064 1475 184.918 1475 211.451ZM1634.45 353.385V293.336C1647.02 303.365 1662.12 308.443 1679.77 308.443C1699.2 308.443 1715.83 300.064 1726.11 286.861C1736.39 273.658 1742.11 255.885 1742.11 236.461C1742.11 217.672 1737.28 201.549 1727.89 189.361C1718.49 177.301 1702.88 170.064 1683.58 170.064C1659.84 170.064 1641.56 179.205 1628.74 197.359V174.508H1607.66V353.385H1634.45ZM1634.2 217.418C1638.77 210.182 1644.73 204.469 1652.1 200.533C1659.46 196.598 1667.08 194.566 1674.82 194.566C1701.35 194.566 1714.3 211.07 1714.3 237.477C1714.3 262.486 1702.88 283.814 1674.82 284.195C1658.82 284.195 1645.24 279.498 1634.2 270.23V217.418ZM1761.91 264.771C1761.91 278.355 1767.88 289.781 1777.02 296.51C1786.16 303.238 1797.46 306.92 1809.01 306.92C1829.83 306.92 1846.21 300.445 1859.41 283.688L1862.46 304H1880.48V222.115C1880.48 205.484 1875.66 192.789 1868.42 185.172C1864.74 181.49 1860.3 178.443 1854.84 176.031C1844.05 171.461 1833.38 170.064 1819.55 170.064C1805.33 170.064 1790.73 172.73 1775.62 177.936V201.295C1786.67 195.836 1800.38 193.043 1816.75 193.043C1841.51 193.043 1853.95 201.168 1853.95 217.418V229.098C1847.73 226.686 1841.13 224.654 1834.02 223.258C1826.78 221.861 1820.69 221.1 1815.48 221.1C1800.76 221.1 1788.32 224.146 1778.16 230.748C1768 237.35 1761.91 249.156 1761.91 264.771ZM1789.71 261.852C1789.71 248.141 1799.36 241.285 1818.53 241.285C1831.61 241.285 1843.41 244.586 1853.95 251.188V261.852C1849.76 269.342 1844.43 275.182 1837.7 279.498C1830.97 283.941 1824.12 286.1 1817.01 286.1C1798.85 286.1 1789.71 277.975 1789.71 261.852ZM1942.18 304V223.639C1950.18 205.738 1963 196.852 1980.9 196.852C1985.35 196.852 1990.3 197.486 1995.5 198.756V171.08C1993.85 170.953 1991.19 170.826 1987.76 170.826C1965.8 170.826 1948.79 179.078 1936.22 200.787V174.508H1915.14V304H1942.18ZM2002.87 238.746C2002.87 258.551 2008.58 275.309 2020.13 288.004C2031.69 300.826 2051.11 308.443 2075.61 308.443C2083.74 308.443 2092.12 307.682 2100.62 306.285C2109.13 304.889 2115.98 302.73 2121.44 300.064V277.975C2109.13 283.434 2095.42 286.1 2080.31 286.1C2068.63 286.1 2058.47 283.814 2049.08 278.736C2039.68 273.658 2032.83 264.01 2030.92 251.188H2130.71C2131.47 243.443 2131.85 237.223 2131.85 232.525C2131.85 215.133 2127.15 200.406 2117.51 188.727C2107.86 177.047 2091.23 170.064 2069.9 170.064C2052.51 170.064 2036 176.539 2023.43 187.838C2010.87 199.137 2002.87 217.418 2002.87 238.746ZM2030.42 230.621C2031.81 206.754 2046.41 192.408 2069.9 192.408C2080.31 192.408 2088.81 195.709 2095.42 202.438C2102.02 209.166 2105.32 218.561 2105.32 230.621H2030.42ZM2188.47 304V218.18C2196.47 201.168 2209.04 192.662 2225.92 192.662C2242.3 192.662 2253.98 202.564 2253.98 223.893V304H2281.02V216.656C2281.02 184.156 2257.41 170.064 2231.38 170.064C2211.07 170.064 2193.55 178.951 2182.51 197.359V174.508H2161.43V304H2188.47ZM2313.78 263.756C2313.78 294.605 2327.49 307.428 2352.75 307.428C2364.18 307.428 2373.19 305.904 2379.79 302.73V279.879C2377.51 281.021 2374.33 282.164 2370.4 283.053C2366.33 283.941 2362.78 284.449 2359.73 284.449C2347.16 284.449 2340.82 277.594 2340.82 263.756V195.074H2383.22V174.508H2340.82V138.072L2313.78 149.879V263.756Z" fill="black"></path> <path d="M992.32 475.336V616H1018.6V475.336H1071.92V451.723H939V475.336H992.32ZM1068.75 550.746C1068.75 570.551 1074.46 587.309 1086.01 600.004C1097.56 612.826 1116.99 620.443 1141.49 620.443C1149.62 620.443 1157.99 619.682 1166.5 618.285C1175.01 616.889 1181.86 614.73 1187.32 612.064V589.975C1175.01 595.434 1161.29 598.1 1146.19 598.1C1134.51 598.1 1124.35 595.814 1114.96 590.736C1105.56 585.658 1098.71 576.01 1096.8 563.188H1196.59C1197.35 555.443 1197.73 549.223 1197.73 544.525C1197.73 527.133 1193.03 512.406 1183.38 500.727C1173.74 489.047 1157.11 482.064 1135.78 482.064C1118.38 482.064 1101.88 488.539 1089.31 499.838C1076.74 511.137 1068.75 529.418 1068.75 550.746ZM1096.29 542.621C1097.69 518.754 1112.29 504.408 1135.78 504.408C1146.19 504.408 1154.69 507.709 1161.29 514.438C1167.9 521.166 1171.2 530.561 1171.2 542.621H1096.29ZM1219.82 552.016C1219.44 594.164 1249.78 621.205 1288.38 620.443C1302.21 620.443 1314.65 618.158 1325.57 613.461V590.736C1315.67 595.18 1304.5 597.338 1292.06 597.338C1278.73 597.338 1267.94 593.275 1259.81 585.277C1251.69 577.279 1247.62 565.854 1247.62 551C1247.62 520.658 1263.37 505.043 1292.82 505.043C1303.61 505.043 1314.02 506.693 1324.05 510.121V487.777C1314.27 483.969 1302.85 482.064 1289.77 482.064C1268.32 482.064 1251.3 488.412 1238.74 501.107C1226.17 513.803 1219.82 530.814 1219.82 552.016ZM1379.02 616V530.18C1387.02 513.168 1399.59 504.662 1416.47 504.662C1432.85 504.662 1444.53 514.564 1444.53 535.893V616H1471.57V528.656C1471.57 496.156 1449.48 482.064 1423.45 482.064C1405.55 482.064 1389.18 489.682 1379.02 505.805V440.043H1352.23V616H1379.02ZM1533.39 616V530.18C1541.39 513.168 1553.96 504.662 1570.85 504.662C1587.22 504.662 1598.9 514.564 1598.9 535.893V616H1625.94V528.656C1625.94 496.156 1602.33 482.064 1576.3 482.064C1555.99 482.064 1538.47 490.951 1527.43 509.359V486.508H1506.35V616H1533.39ZM1652.48 552.016C1652.48 570.424 1658.32 586.928 1669.36 599.496C1680.41 612.191 1698.94 620.316 1721.41 620.443C1742.49 620.443 1759.24 613.842 1771.69 600.766C1784 587.689 1790.22 570.932 1790.22 550.492C1790.22 532.084 1784.38 515.58 1773.34 502.885C1762.29 490.316 1743.88 482.191 1721.41 482.064C1700.34 482.064 1683.58 488.666 1671.14 501.742C1658.7 514.818 1652.48 531.576 1652.48 552.016ZM1680.28 549.984C1680.28 538.686 1682.95 528.529 1689.04 519.389C1695.13 510.248 1706.56 504.408 1721.41 504.408C1750.36 504.408 1762.42 528.275 1762.42 552.523C1762.42 573.598 1752.64 598.1 1721.41 598.1C1707.32 598.1 1696.28 592.26 1689.93 582.992C1683.58 573.852 1680.28 562.553 1680.28 549.984ZM1844.68 616V440.043H1817.64V616H1844.68ZM1870.07 552.016C1870.07 570.424 1875.91 586.928 1886.96 599.496C1898 612.191 1916.54 620.316 1939.01 620.443C1960.08 620.443 1976.84 613.842 1989.28 600.766C2001.6 587.689 2007.82 570.932 2007.82 550.492C2007.82 532.084 2001.98 515.58 1990.93 502.885C1979.89 490.316 1961.48 482.191 1939.01 482.064C1917.94 482.064 1901.18 488.666 1888.74 501.742C1876.29 514.818 1870.07 531.576 1870.07 552.016ZM1897.88 549.984C1897.88 538.686 1900.54 528.529 1906.64 519.389C1912.73 510.248 1924.16 504.408 1939.01 504.408C1967.96 504.408 1980.02 528.275 1980.02 552.523C1980.02 573.598 1970.24 598.1 1939.01 598.1C1924.92 598.1 1913.87 592.26 1907.53 582.992C1901.18 573.852 1897.88 562.553 1897.88 549.984ZM2027.75 551C2027.75 563.695 2029.91 575.121 2034.35 585.15C2038.67 595.307 2045.27 603.432 2054.28 609.652C2063.17 615.873 2073.71 618.92 2085.77 618.92C2096.56 618.92 2105.95 617.27 2113.82 613.842C2121.7 610.541 2128.93 604.193 2135.66 594.926V599.115C2135.66 628.568 2119.28 643.295 2086.53 643.295C2072.44 643.295 2058.47 640.121 2044.63 633.9V656.498C2057.33 663.1 2072.56 666.4 2090.34 666.4C2128.04 666.4 2162.19 647.992 2162.19 590.482V486.508H2140.61L2138.71 501.361C2126.39 488.539 2109.51 482.064 2088.05 482.064C2073.2 482.064 2058.73 487.904 2047.05 498.949C2035.37 509.994 2027.75 528.656 2027.75 551ZM2055.55 551.762C2055.55 520.15 2068.25 504.408 2093.51 504.408C2108.11 504.408 2123.47 509.994 2135.66 522.689V567.123C2125.63 586.547 2109.89 596.449 2094.02 596.449C2066.34 596.449 2055.55 575.121 2055.55 551.762ZM2233.92 601.908L2201.42 665.385H2229.22L2309.59 486.508H2282.54L2246.62 574.359L2210.18 486.508H2180.09L2233.92 601.908Z" fill="#888BAE"></path> </svg> 