<svg xmlns="http://www.w3.org/2000/svg" xmlns:xlink="http://www.w3.org/1999/xlink" width="174.22700000000003" height="48"><path fill="#FC3F1D" d="M20.59 41.00L20.59 34.04C20.59 28.79 19.94 27.26 17.94 22.89L7.43-0.00L0-0.00L13.45 29.26L13.45 41.00ZM25.25 19.82L33.98-0.00L26.73-0.00L18.00 19.82Z"/><path fill="#000" d="M99.89 41.59C103.19 41.59 105.91 40.06 107.79 37.17L108.15 41.00L114.64 41.00L114.64-0.00L107.62-0.00L107.62 14.81C105.85 12.15 103.25 10.73 100.18 10.73C93.40 10.73 88.68 16.46 88.68 26.37C88.68 36.16 93.28 41.59 99.89 41.59ZM143.02 39.00L143.02 33.27C140.83 34.75 137.18 36.05 133.75 36.05C128.62 36.05 126.67 33.63 126.38 28.67L143.31 28.67L143.31 24.95C143.31 14.63 138.77 10.73 131.75 10.73C123.19 10.73 119.12 17.28 119.12 26.25C119.12 36.58 124.20 41.59 133.16 41.59C137.65 41.59 140.95 40.41 143.02 39.00ZM54.69 20.77C54.69 13.57 51.03 10.85 43.60 10.85C38.94 10.85 35.28 12.33 33.16 13.57L33.16 19.41C35.05 17.99 39.18 16.46 42.77 16.46C46.14 16.46 47.67 17.64 47.67 20.82L47.67 22.48L46.55 22.48C35.81 22.48 31.03 26.02 31.03 32.03C31.03 38.05 34.69 41.41 40.12 41.41C44.25 41.41 46.02 40.06 47.38 38.64L47.67 38.64C47.73 39.41 47.97 40.41 48.20 41.00L55.05 41.00C54.81 38.58 54.69 36.16 54.69 33.75ZM67.44 19.70C68.73 18.11 70.80 16.75 73.34 16.75C75.81 16.75 76.94 17.82 76.94 20.06L76.94 41.00L83.96 41.00L83.96 19.35C83.96 13.45 81.60 10.85 75.87 10.85C71.69 10.85 69.21 12.39 67.79 13.80L67.44 13.80L67.26 11.32L60.42 11.32L60.42 41.00L67.44 41.00ZM164.61 41.00L172.52 41.00L162.84 25.72L171.22 11.32L164.20 11.32L159.12 20.29L153.46 11.32L145.55 11.32L154.52 25.54L145.20 41.00L152.34 41.00L158.30 30.97ZM101.95 16.28C105.73 16.28 107.62 19.29 107.62 26.13C107.62 33.04 105.61 36.05 101.66 36.05C97.82 36.05 95.93 33.10 95.93 26.37C95.93 19.35 97.94 16.28 101.95 16.28ZM131.63 16.28C135.11 16.28 136.17 19.17 136.17 22.89L136.17 23.48L126.38 23.48C126.56 18.76 128.27 16.28 131.63 16.28ZM47.67 33.92C46.79 35.22 45.13 36.28 42.66 36.28C39.71 36.28 38.23 34.63 38.23 32.09C38.23 28.73 40.65 27.49 46.67 27.49L47.67 27.49Z"/></svg>