<?xml version="1.0" standalone="no"?>
<!DOCTYPE svg PUBLIC "-//W3C//DTD SVG 20010904//EN"
 "http://www.w3.org/TR/2001/REC-SVG-20010904/DTD/svg10.dtd">
<svg version="1.0" xmlns="http://www.w3.org/2000/svg"
 width="700.000000pt" height="700.000000pt" viewBox="0 0 700.000000 700.000000"
 preserveAspectRatio="xMidYMid meet">
<metadata>
Created by potrace 1.11, written by Peter Selinger 2001-2013
</metadata>
<g transform="translate(0.000000,700.000000) scale(0.100000,-0.100000)"
fill="#000000" stroke="none">
<path d="M2575 6979 c-11 -4 -69 -8 -130 -9 -68 0 -161 -10 -245 -25 -128 -23
-131 -24 -55 -20 l80 5 -42 -19 c-68 -32 -452 -161 -478 -161 -12 0 -34 9 -48
20 -43 34 -92 50 -180 56 -97 8 -139 1 -131 -21 7 -18 -41 -32 -59 -17 -9 7
-32 1 -82 -22 -55 -26 -78 -44 -109 -85 -45 -60 -86 -89 -86 -60 0 6 19 29 42
52 41 38 41 39 8 17 -58 -39 -120 -91 -120 -101 0 -6 -20 -39 -45 -73 -57 -80
-75 -124 -75 -179 0 -49 13 -65 64 -82 25 -9 31 -15 29 -38 -2 -37 -77 -148
-148 -220 -45 -46 -62 -58 -83 -55 -43 5 -51 59 -23 138 13 34 20 64 18 67 -3
2 -53 -38 -113 -89 -59 -51 -120 -103 -136 -116 -72 -59 -166 -228 -208 -373
-19 -63 -23 -113 -30 -349 -8 -253 -12 -294 -49 -515 -38 -225 -41 -252 -40
-430 l1 -190 13 85 c8 47 20 121 29 165 14 79 14 78 9 -125 -7 -237 0 -275 67
-376 50 -77 153 -193 234 -262 136 -118 397 -286 500 -322 85 -29 96 -38 127
-103 30 -64 36 -101 19 -112 -37 -23 35 -191 125 -293 27 -31 91 -82 140 -115
121 -78 349 -192 438 -217 110 -32 120 -38 67 -40 -33 -2 -17 -6 55 -15 55 -7
140 -22 188 -34 49 -12 92 -21 95 -21 4 0 -35 18 -87 40 -190 79 -117 80 119
1 167 -56 330 -124 345 -145 15 -19 87 -38 99 -26 16 16 55 11 65 -9 8 -13 26
-20 72 -25 63 -6 145 -38 199 -76 15 -11 32 -20 36 -20 5 0 -14 15 -41 34 -28
18 -57 41 -64 50 -12 14 -11 16 5 16 38 0 450 -149 774 -280 171 -69 246 -105
365 -174 104 -61 232 -123 270 -131 l30 -6 -40 35 c-22 20 -200 145 -395 279
-416 284 -500 345 -500 359 0 7 31 8 98 3 l97 -7 -20 22 c-11 12 -71 46 -133
76 -140 68 -156 90 -100 138 35 30 36 32 24 61 -31 71 -153 187 -249 236 -52
27 -57 32 -45 46 7 9 56 36 108 61 52 24 148 69 213 99 64 31 120 54 123 50 3
-3 -6 -23 -20 -44 -14 -20 -26 -43 -26 -49 0 -24 45 -66 168 -154 70 -51 148
-113 175 -138 48 -47 63 -80 30 -67 -10 4 -34 9 -53 13 -41 6 -44 13 53 -102
76 -89 88 -114 63 -132 -11 -7 -42 -21 -70 -30 -81 -26 -86 -37 -35 -70 65
-42 792 -401 850 -420 87 -29 97 6 54 184 -14 57 -25 112 -25 123 0 50 185
172 283 185 36 5 53 0 122 -36 150 -79 337 -237 381 -322 9 -17 16 -50 16 -74
0 -53 21 -82 66 -90 28 -6 37 -2 66 30 31 32 56 100 56 150 0 16 -66 78 -295
277 -181 157 -275 249 -275 269 0 19 35 10 70 -18 69 -57 105 -65 135 -32 36
40 3 79 -269 313 -255 219 -481 442 -566 557 -84 114 -153 253 -145 290 7 34
125 150 153 150 10 0 43 -17 73 -39 81 -57 133 -81 181 -81 52 0 58 -4 92 -57
18 -30 33 -43 49 -43 28 0 47 17 47 43 0 10 5 27 10 38 10 17 13 18 38 5 39
-20 212 -202 258 -271 39 -58 39 -59 36 -147 -1 -49 2 -98 8 -108 6 -11 32
-45 60 -76 49 -56 73 -106 85 -177 3 -21 20 -53 38 -74 30 -34 32 -42 34 -112
0 -42 2 -82 2 -88 1 -7 12 -13 25 -13 66 0 121 -47 219 -184 91 -127 168 -206
203 -206 36 0 118 -81 154 -153 33 -67 37 -89 16 -106 -23 -19 -8 -46 75 -139
57 -62 85 -103 100 -144 12 -31 30 -65 40 -74 18 -16 19 -16 19 8 0 86 -91
327 -155 413 -35 46 -45 68 -45 98 0 54 -49 173 -131 317 -129 226 -198 364
-210 420 -6 30 -32 100 -57 155 -24 55 -60 144 -78 199 -42 123 -82 196 -189
345 -89 125 -113 167 -101 179 13 12 111 -102 281 -326 108 -143 161 -205 163
-192 5 28 -25 162 -52 233 -50 133 -173 356 -324 586 -88 133 -128 208 -118
218 7 7 16 -3 93 -112 87 -124 94 -128 25 -13 -54 89 -102 184 -102 203 0 8
-4 15 -10 15 -5 0 -10 -5 -10 -11 0 -6 -7 -9 -16 -7 -11 2 -22 22 -30 56 -18
71 -75 156 -224 337 -68 83 -194 245 -280 360 -194 260 -291 374 -593 688
-191 198 -244 260 -263 304 -61 137 -212 290 -379 382 -91 51 -158 113 -260
241 -134 168 -196 218 -335 265 -41 14 -75 25 -77 25 -2 0 27 -26 64 -59 81
-70 223 -217 223 -231 0 -18 -25 -10 -77 25 -69 46 -180 151 -199 187 -14 27
-22 31 -99 43 l-40 7 40 23 c26 16 34 26 24 29 -27 9 -264 13 -284 5z m146
-193 c50 -38 174 -180 174 -199 0 -18 -60 -12 -151 17 -100 32 -134 57 -134
97 0 50 35 118 61 119 3 0 26 -15 50 -34z m1314 -1112 c62 -51 108 -115 103
-143 -3 -21 -3 -21 -39 3 -31 22 -189 202 -213 244 -10 18 72 -39 149 -104z
m-3618 -789 c30 -52 59 -143 49 -152 -14 -14 -94 82 -106 127 -21 79 17 96 57
25z m4654 -271 c109 -116 204 -287 254 -461 37 -126 34 -253 -5 -253 -22 0
-79 98 -211 362 -149 297 -180 380 -161 424 l12 25 28 -19 c15 -11 52 -46 83
-78z m-539 -235 c55 -59 148 -194 148 -215 0 -62 -180 81 -225 179 -45 97 0
118 77 36z m-4056 -324 c-4 -14 -12 -25 -19 -22 -14 4 -21 41 -12 65 5 14 7
14 22 0 11 -11 13 -25 9 -43z m143 -286 c60 -89 104 -174 117 -223 13 -52 -27
-26 -83 54 -58 84 -163 282 -163 307 0 28 65 -41 129 -138z m4272 44 c34 -20
44 -40 28 -59 -31 -38 -99 -1 -99 53 0 28 29 31 71 6z m-942 -684 c132 -124
290 -299 302 -336 22 -68 53 -35 93 99 36 118 41 121 114 60 114 -95 260 -183
325 -197 20 -4 27 -11 27 -28 0 -35 -25 -62 -93 -103 -80 -48 -115 -80 -122
-115 -8 -36 -103 -123 -150 -139 -42 -14 -6 -43 -494 399 l-313 285 28 20 c16
12 63 47 104 78 41 31 79 57 84 57 4 1 47 -35 95 -80z m-2569 -127 c25 -7 95
-23 157 -37 125 -27 181 -51 233 -100 43 -42 150 -99 299 -161 108 -45 190
-95 198 -121 3 -7 -10 -14 -29 -18 -57 -10 -183 30 -333 105 -77 39 -148 70
-157 70 -37 0 -17 -40 88 -177 35 -46 64 -91 64 -99 0 -57 -162 69 -406 318
-189 192 -255 279 -186 245 15 -8 47 -19 72 -25z m2020 24 c0 -23 -279 -176
-320 -176 -46 0 -15 31 85 87 99 54 186 92 213 93 12 0 22 -2 22 -4z m-476
-380 c54 -32 109 -106 78 -106 -25 0 -142 96 -142 117 0 19 18 16 64 -11z
m-540 -202 c23 -9 20 -31 -5 -37 -26 -7 -49 1 -49 17 0 25 22 32 54 20z"/>
<path d="M5130 4271 c0 -13 50 -71 61 -71 16 0 10 32 -8 47 -32 24 -53 34 -53
24z"/>
<path d="M1983 6913 c15 -2 39 -2 55 0 15 2 2 4 -28 4 -30 0 -43 -2 -27 -4z"/>
<path d="M1868 6903 c18 -2 45 -2 60 0 15 2 0 4 -33 4 -33 0 -45 -2 -27 -4z"/>
<path d="M1753 6893 c15 -2 37 -2 50 0 12 2 0 4 -28 4 -27 0 -38 -2 -22 -4z"/>
<path d="M1643 6883 c9 -2 25 -2 35 0 9 3 1 5 -18 5 -19 0 -27 -2 -17 -5z"/>
<path d="M3245 6843 c6 -6 51 -41 100 -77 50 -37 72 -51 50 -30 -36 33 -173
131 -150 107z"/>
<path d="M3460 6675 c13 -14 26 -25 28 -25 3 0 -5 11 -18 25 -13 14 -26 25
-28 25 -3 0 5 -11 18 -25z"/>
<path d="M680 6258 c-15 -21 -17 -28 -6 -19 16 13 41 51 33 51 -2 0 -14 -15
-27 -32z"/>
<path d="M3980 6186 c55 -59 231 -220 291 -266 58 -44 35 -22 -81 81 -52 46
-131 118 -175 159 -44 41 -60 53 -35 26z"/>
<path d="M614 6178 l-29 -33 33 29 c17 17 32 31 32 33 0 8 -8 1 -36 -29z"/>
<path d="M485 6048 l-40 -43 43 40 c23 21 42 40 42 42 0 8 -9 0 -45 -39z"/>
<path d="M365 5938 l-70 -73 73 70 c67 64 77 75 69 75 -1 0 -34 -33 -72 -72z"/>
<path d="M4320 5886 c0 -2 8 -10 18 -17 15 -13 16 -12 3 4 -13 16 -21 21 -21
13z"/>
<path d="M272 5833 c-23 -33 -62 -109 -62 -120 0 -4 16 20 34 55 19 35 40 69
46 77 7 8 10 15 7 15 -3 0 -14 -12 -25 -27z"/>
<path d="M4410 5816 c0 -2 8 -10 18 -17 15 -13 16 -12 3 4 -13 16 -21 21 -21
13z"/>
<path d="M4530 5705 c47 -47 87 -85 90 -85 2 0 -33 38 -80 85 -47 47 -87 85
-90 85 -2 0 33 -38 80 -85z"/>
<path d="M4450 5697 c0 -46 78 -177 106 -177 24 0 16 33 -25 100 -40 68 -81
106 -81 77z"/>
<path d="M4620 5606 c0 -2 8 -10 18 -17 15 -13 16 -12 3 4 -13 16 -21 21 -21
13z"/>
<path d="M4665 5550 c10 -11 20 -20 23 -20 3 0 -3 9 -13 20 -10 11 -20 20 -23
20 -3 0 3 -9 13 -20z"/>
<path d="M151 5494 c0 -11 3 -14 6 -6 3 7 2 16 -1 19 -3 4 -6 -2 -5 -13z"/>
<path d="M141 5424 c0 -11 3 -14 6 -6 3 7 2 16 -1 19 -3 4 -6 -2 -5 -13z"/>
<path d="M4846 5289 c53 -79 104 -151 112 -159 8 -8 -31 54 -88 138 -56 84
-107 155 -112 158 -5 3 34 -59 88 -137z"/>
<path d="M131 5324 c0 -11 3 -14 6 -6 3 7 2 16 -1 19 -3 4 -6 -2 -5 -13z"/>
<path d="M122 5185 c0 -16 2 -22 5 -12 2 9 2 23 0 30 -3 6 -5 -1 -5 -18z"/>
<path d="M5030 5010 c6 -11 13 -20 16 -20 2 0 0 9 -6 20 -6 11 -13 20 -16 20
-2 0 0 -9 6 -20z"/>
<path d="M113 4935 c0 -38 2 -53 4 -32 2 20 2 52 0 70 -2 17 -4 1 -4 -38z"/>
<path d="M5150 4730 c6 -11 13 -20 16 -20 2 0 0 9 -6 20 -6 11 -13 20 -16 20
-2 0 0 -9 6 -20z"/>
<path d="M5251 4600 c30 -36 62 -76 72 -90 12 -16 10 -11 -4 17 -12 23 -44 63
-72 90 l-50 48 54 -65z"/>
<path d="M5361 4435 c1 -19 18 -51 18 -35 0 8 -4 22 -9 30 -5 8 -9 11 -9 5z"/>
<path d="M5381 4354 c0 -11 3 -14 6 -6 3 7 2 16 -1 19 -3 4 -6 -2 -5 -13z"/>
<path d="M5560 3980 c6 -11 13 -20 16 -20 2 0 0 9 -6 20 -6 11 -13 20 -16 20
-2 0 0 -9 6 -20z"/>
<path d="M101 3953 c-1 -23 10 -49 35 -83 20 -27 38 -50 40 -50 2 0 -10 22
-26 50 -16 27 -34 65 -39 82 l-9 33 -1 -32z"/>
<path d="M180 3806 c0 -2 8 -10 18 -17 15 -13 16 -12 3 4 -13 16 -21 21 -21
13z"/>
<path d="M210 3766 c0 -2 8 -10 18 -17 15 -13 16 -12 3 4 -13 16 -21 21 -21
13z"/>
<path d="M260 3705 c13 -14 26 -25 28 -25 3 0 -5 11 -18 25 -13 14 -26 25 -28
25 -3 0 5 -11 18 -25z"/>
<path d="M5770 3650 c6 -11 13 -20 16 -20 2 0 0 9 -6 20 -6 11 -13 20 -16 20
-2 0 0 -9 6 -20z"/>
<path d="M325 3630 c10 -11 20 -20 23 -20 3 0 -3 9 -13 20 -10 11 -20 20 -23
20 -3 0 3 -9 13 -20z"/>
<path d="M450 3515 c13 -14 26 -25 28 -25 3 0 -5 11 -18 25 -13 14 -26 25 -28
25 -3 0 5 -11 18 -25z"/>
<path d="M500 3476 c0 -2 8 -10 18 -17 15 -13 16 -12 3 4 -13 16 -21 21 -21
13z"/>
<path d="M550 3436 c0 -2 8 -10 18 -17 15 -13 16 -12 3 4 -13 16 -21 21 -21
13z"/>
<path d="M594 3401 c8 -12 96 -74 96 -67 0 2 -23 21 -51 41 -28 20 -48 32 -45
26z"/>
<path d="M5930 3271 c0 -6 4 -13 10 -16 6 -3 7 1 4 9 -7 18 -14 21 -14 7z"/>
<path d="M6005 3146 c10 -14 19 -26 22 -26 7 0 -17 39 -28 46 -6 3 -3 -5 6
-20z"/>
<path d="M985 3115 c8 -35 31 -75 45 -75 21 0 9 41 -21 72 l-31 33 7 -30z"/>
<path d="M1220 2678 c24 -27 45 -48 47 -48 8 0 0 9 -44 50 l-48 45 45 -47z"/>
<path d="M6230 2635 c0 -5 5 -17 10 -25 5 -8 10 -10 10 -5 0 6 -5 17 -10 25
-5 8 -10 11 -10 5z"/>
<path d="M1280 2626 c0 -2 8 -10 18 -17 15 -13 16 -12 3 4 -13 16 -21 21 -21
13z"/>
<path d="M3917 2018 c43 -75 173 -186 206 -175 22 7 -188 207 -217 207 -4 0 1
-14 11 -32z"/>
<path d="M3080 2030 c8 -5 20 -10 25 -10 6 0 3 5 -5 10 -8 5 -19 10 -25 10 -5
0 -3 -5 5 -10z"/>
<path d="M3128 2013 c6 -2 18 -2 25 0 6 3 1 5 -13 5 -14 0 -19 -2 -12 -5z"/>
<path d="M4305 1924 c150 -131 325 -239 325 -201 0 17 -107 97 -236 176 -110
68 -151 80 -89 25z"/>
<path d="M3410 1920 c8 -5 20 -10 25 -10 6 0 3 5 -5 10 -8 5 -19 10 -25 10 -5
0 -3 -5 5 -10z"/>
<path d="M6392 1883 c4 -31 23 -42 30 -16 7 25 -1 43 -18 43 -11 0 -14 -8 -12
-27z"/>
<path d="M3520 1870 c8 -5 20 -10 25 -10 6 0 3 5 -5 10 -8 5 -19 10 -25 10 -5
0 -3 -5 5 -10z"/>
<path d="M3720 1780 c8 -5 20 -10 25 -10 6 0 3 5 -5 10 -8 5 -19 10 -25 10 -5
0 -3 -5 5 -10z"/>
<path d="M4260 1776 c0 -8 21 -37 46 -65 109 -121 364 -241 364 -171 0 31 -42
68 -86 76 -52 9 -103 36 -195 100 -88 62 -129 81 -129 60z"/>
<path d="M4010 1640 c63 -32 120 -59 125 -59 6 0 -42 27 -105 59 -63 32 -119
59 -125 59 -5 0 42 -27 105 -59z"/>
<path d="M4440 1521 c0 -26 161 -133 177 -117 10 9 -27 45 -83 81 -57 37 -94
51 -94 36z"/>
<path d="M4270 1516 c0 -3 9 -10 20 -16 11 -6 20 -8 20 -6 0 3 -9 10 -20 16
-11 6 -20 8 -20 6z"/>
<path d="M4400 1446 c0 -3 9 -10 20 -16 11 -6 20 -8 20 -6 0 3 -9 10 -20 16
-11 6 -20 8 -20 6z"/>
<path d="M4698 1374 c26 -48 110 -104 156 -104 49 0 35 19 -46 64 -111 60
-123 65 -110 40z"/>
<path d="M6696 1377 c3 -10 9 -15 12 -12 3 3 0 11 -7 18 -10 9 -11 8 -5 -6z"/>
<path d="M4971 1296 c-21 -25 30 -49 102 -50 49 -1 62 2 65 15 7 36 -141 66
-167 35z"/>
<path d="M6731 1294 c0 -11 3 -14 6 -6 3 7 2 16 -1 19 -3 4 -6 -2 -5 -13z"/>
<path d="M4650 1295 c0 -7 61 -37 66 -33 2 3 -12 12 -31 21 -19 9 -35 15 -35
12z"/>
<path d="M4850 1196 c0 -3 9 -10 20 -16 11 -6 20 -8 20 -6 0 3 -9 10 -20 16
-11 6 -20 8 -20 6z"/>
<path d="M4900 1166 c0 -2 8 -10 18 -17 15 -13 16 -12 3 4 -13 16 -21 21 -21
13z"/>
<path d="M4970 1116 c0 -2 8 -10 18 -17 15 -13 16 -12 3 4 -13 16 -21 21 -21
13z"/>
<path d="M5010 1086 c0 -2 8 -10 18 -17 15 -13 16 -12 3 4 -13 16 -21 21 -21
13z"/>
<path d="M5075 1030 c10 -11 20 -20 23 -20 3 0 -3 9 -13 20 -10 11 -20 20 -23
20 -3 0 3 -9 13 -20z"/>
<path d="M5125 990 c10 -11 20 -20 23 -20 3 0 -3 9 -13 20 -10 11 -20 20 -23
20 -3 0 3 -9 13 -20z"/>
<path d="M5180 945 c13 -14 26 -25 28 -25 3 0 -5 11 -18 25 -13 14 -26 25 -28
25 -3 0 5 -11 18 -25z"/>
<path d="M5235 900 c10 -11 20 -20 23 -20 3 0 -3 9 -13 20 -10 11 -20 20 -23
20 -3 0 3 -9 13 -20z"/>
<path d="M5295 850 c10 -11 20 -20 23 -20 3 0 -3 9 -13 20 -10 11 -20 20 -23
20 -3 0 3 -9 13 -20z"/>
<path d="M5345 810 c10 -11 20 -20 23 -20 3 0 -3 9 -13 20 -10 11 -20 20 -23
20 -3 0 3 -9 13 -20z"/>
<path d="M5380 786 c0 -2 8 -10 18 -17 15 -13 16 -12 3 4 -13 16 -21 21 -21
13z"/>
<path d="M5450 736 c0 -2 8 -10 18 -17 15 -13 16 -12 3 4 -13 16 -21 21 -21
13z"/>
<path d="M6933 680 c0 -25 2 -35 4 -22 2 12 2 32 0 45 -2 12 -4 2 -4 -23z"/>
<path d="M5520 686 c0 -2 8 -10 18 -17 15 -13 16 -12 3 4 -13 16 -21 21 -21
13z"/>
<path d="M5560 656 c0 -2 8 -10 18 -17 15 -13 16 -12 3 4 -13 16 -21 21 -21
13z"/>
<path d="M5600 626 c0 -2 8 -10 18 -17 15 -13 16 -12 3 4 -13 16 -21 21 -21
13z"/>
<path d="M5665 570 c10 -11 20 -20 23 -20 3 0 -3 9 -13 20 -10 11 -20 20 -23
20 -3 0 3 -9 13 -20z"/>
<path d="M6922 530 c0 -14 2 -19 5 -12 2 6 2 18 0 25 -3 6 -5 1 -5 -13z"/>
<path d="M5740 505 c19 -19 36 -35 39 -35 3 0 -10 16 -29 35 -19 19 -36 35
-39 35 -3 0 10 -16 29 -35z"/>
<path d="M6911 454 c0 -11 3 -14 6 -6 3 7 2 16 -1 19 -3 4 -6 -2 -5 -13z"/>
<path d="M5835 420 c21 -22 41 -40 44 -40 3 0 -13 18 -34 40 -21 22 -41 40
-44 40 -3 0 13 -18 34 -40z"/>
<path d="M6901 404 c0 -11 3 -14 6 -6 3 7 2 16 -1 19 -3 4 -6 -2 -5 -13z"/>
<path d="M5935 330 c21 -22 41 -40 44 -40 3 0 -13 18 -34 40 -21 22 -41 40
-44 40 -3 0 13 -18 34 -40z"/>
<path d="M6871 317 c-13 -21 -12 -21 5 -5 10 10 16 20 13 22 -3 3 -11 -5 -18
-17z"/>
<path d="M6835 289 c-4 -6 -5 -12 -2 -15 2 -3 7 2 10 11 7 17 1 20 -8 4z"/>
<path d="M6065 210 c33 -33 62 -60 64 -60 3 0 -21 27 -54 60 -33 33 -62 60
-64 60 -3 0 21 -27 54 -60z"/>
<path d="M6821 234 c0 -11 3 -14 6 -6 3 7 2 16 -1 19 -3 4 -6 -2 -5 -13z"/>
<path d="M6806 193 c-6 -14 -5 -15 5 -6 7 7 10 15 7 18 -3 3 -9 -2 -12 -12z"/>
<path d="M6759 133 l-34 -38 38 34 c34 33 42 41 34 41 -2 0 -19 -17 -38 -37z"/>
<path d="M6180 105 c13 -14 26 -25 28 -25 3 0 -5 11 -18 25 -13 14 -26 25 -28
25 -3 0 5 -11 18 -25z"/>
<path d="M6328 13 c7 -3 16 -2 19 1 4 3 -2 6 -13 5 -11 0 -14 -3 -6 -6z"/>
<path d="M6488 13 c6 -2 18 -2 25 0 6 3 1 5 -13 5 -14 0 -19 -2 -12 -5z"/>
<path d="M6393 3 c9 -2 23 -2 30 0 6 3 -1 5 -18 5 -16 0 -22 -2 -12 -5z"/>
</g>
</svg>
