<svg version="1.1" id="Ebene_1" xmlns="http://www.w3.org/2000/svg" xmlns:xlink="http://www.w3.org/1999/xlink" x="0px" y="0px"
	width="240" height="150" viewBox="0 0 120 75" style="enable-background:new 0 0 120 75;" xml:space="preserve">
<style type="text/css">
	.st0{fill:#FFFFFF;}
</style>
<g>
	<g>
		<rect x="5" y="20" class="st0" width="110" height="50"/>
		<g>
			<path d="M44.39,54.29c-1.21,0-2.34,0.88-2.34,2.62c0,1.72,1.12,2.62,2.34,2.62c1.21,0,2.34-0.88,2.34-2.62
				C46.72,55.17,45.6,54.29,44.39,54.29z"/>
			<path d="M44.39,33.24c-1.21,0-2.34,0.88-2.34,2.62c0,1.72,1.12,2.62,2.34,2.62c1.21,0,2.34-0.88,2.34-2.62
				C46.73,34.12,45.61,33.24,44.39,33.24z"/>
			<path d="M15.53,37.8c0,0.54,0.39,1.06,1.2,1.06c1.05,0,2.02-0.5,2.02-2.13v-0.41l-2.07,0.32C16.03,36.73,15.53,37.09,15.53,37.8z
				"/>
			<path d="M68.61,37.8c0,0.54,0.39,1.06,1.2,1.06c1.05,0,2.02-0.5,2.02-2.13v-0.41l-2.07,0.32C69.12,36.73,68.61,37.09,68.61,37.8z
				"/>
			<path d="M27.47,54.05c-1.28,0-1.98,0.97-2.04,1.81h4.07C29.47,54.94,28.88,54.05,27.47,54.05z"/>
			<path d="M91.62,33.24c-1.21,0-2.34,0.88-2.34,2.62c0,1.72,1.12,2.62,2.34,2.62c1.21,0,2.34-0.88,2.34-2.62
				C93.96,34.12,92.84,33.24,91.62,33.24z"/>
			<path d="M0,0v75h120V0H0z M17.19,32.98c-1.08,0-1.68,0.69-1.76,1.49l-2.2-0.47c0.15-1.44,1.48-3.03,3.94-3.03
				c2.91,0,4,1.64,4,3.49V39c0,0.49,0.06,1.14,0.11,1.46H19c-0.06-0.24-0.09-0.75-0.09-1.1c-0.47,0.73-1.35,1.36-2.71,1.36
				c-1.96,0-3.16-1.33-3.16-2.77c0-1.64,1.21-2.56,2.75-2.78l2.26-0.34c0.52-0.07,0.69-0.34,0.69-0.65
				C18.74,33.52,18.24,32.98,17.19,32.98z M21.51,61.5h-2.44v-5.36c0-1.03-0.49-1.83-1.67-1.83c-1.03,0-1.63,0.79-1.68,1.79v5.4
				h-2.44V47.97h2.44v5.1c0.59-0.71,1.57-1.01,2.44-1.01c2.29,0,3.35,1.63,3.35,3.64V61.5z M22.88,31.26h2.48v5.31
				c0,1.03,0.52,1.85,1.68,1.85c1.1,0,1.74-0.75,1.74-1.81v-5.34h2.49v7.53c0,0.71,0.06,1.35,0.09,1.66h-2.37
				c-0.04-0.19-0.07-0.62-0.07-0.99c-0.5,0.86-1.57,1.23-2.54,1.23c-2.22,0-3.49-1.63-3.49-3.62V31.26z M31.89,57.56h-6.51
				c0.06,1.21,1.07,2.09,2.29,2.09c1.15,0,1.78-0.58,2.07-1.4l2.05,0.62c-0.46,1.59-1.91,2.92-4.14,2.92c-2.5,0-4.7-1.81-4.7-4.91
				c0-2.93,2.15-4.84,4.48-4.84c2.81,0,4.5,1.81,4.5,4.76C31.93,57.15,31.89,57.52,31.89,57.56z M32.6,31.26h0.47
				c0.97,0,1.42-0.64,1.42-1.46v-1.29h2.24v2.75h1.85v2.2h-1.85v3.85c0,0.8,0.37,1.06,1.08,1.06c0.3,0,0.64-0.04,0.77-0.07v2.06
				c-0.22,0.09-0.67,0.22-1.4,0.22c-1.79,0-2.92-1.07-2.92-2.84v-4.28H32.6V31.26z M38.91,54.78c-0.28-0.06-0.52-0.07-0.74-0.07
				c-1.26,0-2.35,0.62-2.35,2.6v4.2h-2.46v-9.19h2.39v1.36c0.56-1.21,1.81-1.44,2.59-1.44c0.2,0,0.39,0.02,0.57,0.04V54.78z
				 M44.39,61.78c-2.75,0-4.82-2.06-4.82-4.88c0-2.84,2.07-4.88,4.82-4.88s4.82,2.04,4.82,4.88C49.21,59.73,47.14,61.78,44.39,61.78
				z M44.39,40.73c-2.75,0-4.82-2.06-4.82-4.88c0-2.84,2.07-4.88,4.82-4.88s4.82,2.04,4.82,4.88
				C49.21,38.68,47.14,40.73,44.39,40.73z M58.96,63.54h-8.3V61.5h8.3V63.54z M64.7,40.45h-2.41V35c0-0.99-0.49-1.74-1.63-1.74
				c-1.06,0-1.7,0.82-1.7,1.81v5.38h-2.47V35c0-0.99-0.5-1.74-1.63-1.74c-1.08,0-1.72,0.8-1.72,1.81v5.38h-2.48v-9.19h2.37v1.12
				c0.5-0.9,1.68-1.38,2.69-1.38c1.25,0,2.26,0.54,2.73,1.53c0.73-1.12,1.7-1.53,2.91-1.53c1.7,0,3.33,1.03,3.33,3.49V40.45z
				 M72.09,40.45c-0.06-0.24-0.09-0.75-0.09-1.1c-0.47,0.73-1.35,1.36-2.71,1.36c-1.96,0-3.16-1.33-3.16-2.77
				c0-1.64,1.21-2.56,2.75-2.78l2.26-0.34c0.52-0.07,0.69-0.34,0.69-0.65c0-0.65-0.5-1.2-1.55-1.2c-1.08,0-1.68,0.69-1.76,1.49
				l-2.2-0.47c0.15-1.44,1.48-3.03,3.94-3.03c2.91,0,4,1.64,4,3.49V39c0,0.49,0.06,1.14,0.11,1.46H72.09z M81.29,33.46h-1.85v3.85
				c0,0.8,0.37,1.06,1.08,1.06c0.3,0,0.64-0.04,0.77-0.07v2.06c-0.22,0.09-0.67,0.22-1.4,0.22c-1.79,0-2.92-1.07-2.92-2.84v-4.28
				h-1.66v-2.2h0.47c0.97,0,1.42-0.64,1.42-1.46v-1.29h2.24v2.75h1.85V33.46z M85.35,40.45h-2.48v-9.19h2.48V40.45z M84.1,29.77
				c-0.84,0-1.53-0.69-1.53-1.51c0-0.86,0.69-1.55,1.53-1.55c0.86,0,1.53,0.69,1.53,1.55C85.63,29.07,84.96,29.77,84.1,29.77z
				 M91.62,40.73c-2.75,0-4.82-2.06-4.82-4.88c0-2.84,2.07-4.88,4.82-4.88s4.82,2.04,4.82,4.88C96.44,38.68,94.37,40.73,91.62,40.73
				z M106.3,40.45h-2.48v-5.36c0-1.03-0.5-1.83-1.7-1.83c-1.08,0-1.72,0.84-1.72,1.91v5.29h-2.48v-9.19h2.41v1.14
				c0.56-0.95,1.66-1.38,2.65-1.38c2.28,0,3.33,1.63,3.33,3.64V40.45z"/>
		</g>
	</g>
</g>
</svg>
