<?xml version="1.0" encoding="utf-8"?>
<!-- Generator: Adobe Illustrator 24.0.0, SVG Export Plug-In . SVG Version: 6.00 Build 0)  -->
<svg version="1.1" id="Layer_1" xmlns="http://www.w3.org/2000/svg" xmlns:xlink="http://www.w3.org/1999/xlink" x="0px" y="0px"
     viewBox="0 0 1024 1024" style="enable-background:new 0 0 1024 1024;" xml:space="preserve">
<style type="text/css">
	.st0{fill:#0E0E0E;}
	.st1{fill-rule:evenodd;clip-rule:evenodd;fill:#FFF200;}
	.st2{fill-rule:evenodd;clip-rule:evenodd;fill:#00AE4C;}
	.st3{fill-rule:evenodd;clip-rule:evenodd;fill:#0098D5;}
</style>
    <g>
	<path class="st0" d="M187,863c-2.7,0.4-6.4,0.9-11,1.3c-4.6,0.5-11.2,0.7-19.7,0.7c-5.1,0-9.9-0.4-14.6-1.3
		c-4.7-0.8-8.8-2.5-12.3-4.9c-3.6-2.4-6.4-5.9-8.5-10.4c-2.1-4.5-3.2-10.3-3.2-17.5v-52.5c0-7.2,1.1-13,3.2-17.4
		c2.1-4.4,5-7.9,8.5-10.3c3.6-2.4,7.7-4.1,12.4-4.9c4.7-0.8,9.6-1.3,14.7-1.3c4.2,0,7.9,0.1,11.2,0.2c3.2,0.2,6,0.3,8.5,0.5
		c2.4,0.2,4.5,0.4,6.2,0.6c1.7,0.2,3.3,0.4,4.7,0.6c2.1,0.3,3.2,1.4,3.2,3.2v14.7c0,0.8-0.3,1.6-1,2.2c-0.6,0.6-1.4,1-2.2,1h-32.1
		c-3.7,0-6.3,0.8-7.8,2.3c-1.5,1.5-2.3,4.4-2.3,8.5v14.4h41c0.8,0,1.6,0.3,2.2,0.9c0.6,0.6,1,1.4,1,2.2v15c0,0.9-0.3,1.6-1,2.2
		c-0.6,0.6-1.4,0.9-2.2,0.9h-41v16.8c0,4.1,0.8,6.9,2.3,8.5c1.5,1.5,4.1,2.3,7.8,2.3H187c0.8,0,1.6,0.3,2.2,0.9c0.6,0.6,1,1.4,1,2.2
		v14.7C190.1,861.6,189.1,862.7,187,863L187,863z"/>
        <path class="st0" d="M291.4,861.4c0,0.5-0.2,1-0.6,1.5c-0.4,0.5-0.9,0.7-1.6,0.7h-23.9c-0.8,0-1.6-0.3-2.1-0.8
		c-0.6-0.5-1.2-1.4-2-2.5l-15.7-24.5l-14.7,24.7c-0.7,1.2-1.4,2-2,2.4c-0.6,0.5-1.3,0.7-2.1,0.7h-21.2c-1.2,0-1.7-0.6-1.7-1.9
		c0-0.5,0.1-1,0.3-1.3l27.7-44l-26.9-40.2c-0.2-0.4-0.3-0.7-0.3-1c0-0.6,0.2-1.2,0.7-1.7c0.5-0.5,1-0.7,1.7-0.7h23.6
		c0.8,0,1.6,0.3,2.1,0.9c0.6,0.6,1.2,1.4,2,2.5l14.1,21.8l13-21.8c0.7-1.2,1.4-2,2-2.5c0.6-0.5,1.3-0.8,2.1-0.8H287
		c1.3,0,1.9,0.7,1.9,2.1c0,0.5-0.1,1-0.3,1.3l-26.1,41.5l28.6,42.6C291.3,860.8,291.4,861.1,291.4,861.4L291.4,861.4z"/>
        <path class="st0" d="M358.7,812.3c0-2.8-0.2-5.4-0.6-7.7c-0.4-2.3-1.2-4.3-2.2-6.1c-1.1-1.7-2.5-3.1-4.3-4c-1.8-0.9-4.1-1.4-7-1.4
		c-2.6,0-5.1,0.1-7.4,0.2c-2.3,0.2-4.1,0.3-5.6,0.6v49.2c1.9,0.2,4.1,0.4,6.5,0.6c2.4,0.2,4.6,0.3,6.5,0.3c2.8,0,5.2-0.5,7-1.5
		c1.8-1,3.2-2.4,4.3-4.1c1.1-1.7,1.8-3.8,2.2-6.2c0.4-2.4,0.6-4.9,0.6-7.7V812.3L358.7,812.3z M384.3,824.6
		c0,12.5-3.3,22.3-9.8,29.6c-6.5,7.3-16.5,10.9-29.9,10.9c-1.6,0-3.6-0.1-5.9-0.3c-2.4-0.2-4.7-0.5-7-0.8v27.4
		c0,0.8-0.3,1.6-0.9,2.2c-0.6,0.6-1.4,0.9-2.2,0.9h-19.1c-0.8,0-1.6-0.3-2.3-0.9c-0.7-0.6-1-1.4-1-2.2V780.4c0-1.3,0.3-2.2,0.9-2.9
		c0.6-0.6,1.9-1.2,4-1.7c4.5-1.2,9.8-2.1,15.7-2.9c5.9-0.8,11.9-1.2,18-1.2c12.9,0,22.7,3.5,29.5,10.6c6.8,7.1,10.2,17,10.2,29.9
		V824.6L384.3,824.6z"/>
        <path class="st0" d="M449.5,792.1c-0.4,0.6-1,1-1.7,1h-1.3c-3.9,0-7.5,0.5-10.9,1.6c-3.4,1-6.5,2.4-9.5,3.9v61.7
		c0,0.8-0.3,1.6-0.9,2.3c-0.6,0.7-1.4,1-2.2,1h-19.1c-0.8,0-1.6-0.3-2.3-1c-0.7-0.7-1-1.5-1-2.3v-84.2c0-0.8,0.3-1.6,1-2.2
		c0.6-0.6,1.4-1,2.2-1h18.8c0.8,0,1.6,0.3,2.2,1c0.6,0.6,1,1.4,1,2.2v3.2c3-2.5,6.3-4.3,10-5.7c3.7-1.3,7.5-2,11.3-2
		c0.8,0,1.6,0.3,2.2,1c0.6,0.6,0.9,1.4,0.9,2.2V790C450.2,790.8,450,791.5,449.5,792.1L449.5,792.1z"/>
        <path class="st0" d="M514.9,809.8c0-5.9-1.3-10.3-3.8-13.2c-2.5-2.9-6-4.4-10.5-4.4c-4.4,0-8,1.5-10.6,4.4c-2.6,3-4,7.3-4,13.1v0.6
		h28.8V809.8L514.9,809.8z M539.9,822.5c0,2.5-1.1,3.8-3.3,3.8h-50.5v0.3c0,2.2,0.3,4.3,0.8,6.4c0.5,2.1,1.4,3.9,2.7,5.5
		c1.3,1.6,2.9,2.8,5,3.8c2.1,0.9,4.7,1.4,7.8,1.4c2.5,0,5.2-0.1,8.1-0.2c2.8-0.1,5.7-0.2,8.5-0.3c2.8-0.1,5.4-0.2,7.8-0.4
		c2.4-0.2,4.4-0.3,6-0.6h0.5c2,0,3,0.9,3,2.5V857c0,1.3-0.2,2.2-0.6,2.9c-0.4,0.6-1.3,1.1-2.7,1.4c-5.1,1.3-10,2.2-14.9,2.9
		c-4.9,0.6-10.7,1-17.6,1c-4.7,0-9.5-0.7-14.2-2.1c-4.7-1.4-9-3.6-12.8-6.8c-3.8-3.2-6.9-7.4-9.2-12.6c-2.3-5.2-3.5-11.6-3.5-19.2
		v-11.1c0-6.3,0.9-12.1,2.7-17.3c1.8-5.2,4.4-9.5,7.8-13.1c3.4-3.6,7.6-6.4,12.6-8.3c5-1.9,10.6-2.9,16.9-2.9c6.4,0,12.1,1.1,17,3.2
		c4.9,2.1,9,5,12.3,8.7c3.3,3.7,5.7,8.1,7.4,13.1c1.6,5.1,2.5,10.6,2.5,16.6V822.5L539.9,822.5z"/>
        <path class="st0" d="M619.8,838.5c0,3.7-0.7,7.2-2.1,10.4c-1.4,3.3-3.4,6.1-6.2,8.5c-2.8,2.4-6.3,4.3-10.5,5.6
		c-4.2,1.4-9.2,2.1-15,2.1c-2.2,0-4.6-0.1-7-0.2c-2.5-0.2-5-0.4-7.6-0.7c-2.6-0.3-5.1-0.7-7.5-1.1c-2.4-0.4-4.6-0.9-6.6-1.4
		c-2-0.5-3-1.7-3-3.6v-12.8c0-0.8,0.3-1.6,0.8-2.1c0.5-0.6,1.3-0.9,2.2-0.9h0.6c2.1,0.3,4.5,0.6,7,0.9c2.6,0.3,5.1,0.5,7.7,0.7
		c2.5,0.2,4.9,0.4,7,0.5c2.2,0.1,3.9,0.2,5.1,0.2c3.8,0,6.3-0.5,7.5-1.5c1.2-1,1.8-2.6,1.8-4.7c0-1.2-0.4-2.2-1.3-3.2
		c-0.8-1-2.4-2.1-4.6-3.4l-20.6-11.9c-4.4-2.5-7.9-5.8-10.4-9.7c-2.5-4-3.7-8.5-3.7-13.7c0-8,2.6-14.1,7.9-18.3
		c5.3-4.2,13.4-6.3,24.3-6.3c6.2,0,11.5,0.3,15.7,1c4.3,0.7,8.4,1.6,12.4,2.6c2,0.5,3,1.7,3,3.6v12.8c0,2-0.9,3-2.7,3H614
		c-1.2-0.1-2.8-0.3-4.9-0.6c-2.1-0.3-4.4-0.5-6.9-0.7c-2.5-0.2-5-0.4-7.6-0.6c-2.6-0.2-4.9-0.2-6.9-0.2c-3.1,0-5.2,0.3-6.5,1
		c-1.3,0.6-1.9,1.8-1.9,3.6c0,1.2,0.4,2.1,1.3,2.9c0.8,0.8,2.1,1.7,3.6,2.6l19.6,11.2c3.3,1.9,5.9,3.8,8,5.8c2.1,2,3.7,4,4.9,6
		c1.2,2.1,2,4.1,2.5,6.2C619.6,834.3,619.8,836.4,619.8,838.5L619.8,838.5z"/>
        <path class="st0" d="M699.5,838.5c0,3.7-0.7,7.2-2.1,10.4c-1.4,3.3-3.4,6.1-6.2,8.5c-2.8,2.4-6.3,4.3-10.5,5.6
		c-4.2,1.4-9.2,2.1-15,2.1c-2.2,0-4.6-0.1-7-0.2c-2.5-0.2-5-0.4-7.6-0.7c-2.6-0.3-5.1-0.7-7.5-1.1c-2.4-0.4-4.6-0.9-6.6-1.4
		c-2-0.5-3-1.7-3-3.6v-12.8c0-0.8,0.3-1.6,0.8-2.1c0.5-0.6,1.3-0.9,2.2-0.9h0.6c2.1,0.3,4.5,0.6,7,0.9c2.6,0.3,5.1,0.5,7.7,0.7
		c2.5,0.2,4.9,0.4,7,0.5c2.2,0.1,3.9,0.2,5.1,0.2c3.8,0,6.3-0.5,7.5-1.5c1.2-1,1.8-2.6,1.8-4.7c0-1.2-0.4-2.2-1.3-3.2
		c-0.8-1-2.4-2.1-4.6-3.4l-20.6-11.9c-4.4-2.5-7.9-5.8-10.4-9.7c-2.5-4-3.7-8.5-3.7-13.7c0-8,2.6-14.1,7.9-18.3
		c5.3-4.2,13.4-6.3,24.3-6.3c6.2,0,11.5,0.3,15.7,1c4.3,0.7,8.4,1.6,12.4,2.6c2,0.5,3,1.7,3,3.6v12.8c0,2-0.9,3-2.7,3h-0.5
		c-1.2-0.1-2.8-0.3-4.9-0.6c-2.1-0.3-4.4-0.5-6.9-0.7c-2.5-0.2-5-0.4-7.6-0.6c-2.6-0.2-4.9-0.2-6.9-0.2c-3.1,0-5.2,0.3-6.5,1
		c-1.3,0.6-1.9,1.8-1.9,3.6c0,1.2,0.4,2.1,1.3,2.9c0.8,0.8,2.1,1.7,3.6,2.6l19.6,11.2c3.3,1.9,5.9,3.8,8,5.8c2.1,2,3.7,4,4.9,6
		c1.2,2.1,2,4.1,2.5,6.2C699.2,834.3,699.5,836.4,699.5,838.5L699.5,838.5z"/>
        <path class="st0" d="M805.4,774.9c0,6.4-1.6,12-4.7,16.7c-3.1,4.7-7.6,9-13.5,13.1l-13.5,9c-3.4,2.2-6.5,4.4-9.3,6.4
		c-2.8,2.1-5.2,4.1-7.3,6.3c-2.1,2.1-3.6,4.3-4.8,6.6c-1.1,2.3-1.7,4.9-1.7,7.6v0.6h50c0.8,0,1.6,0.3,2.2,0.9c0.6,0.6,1,1.3,1,2.1
		v16.3c0,0.8-0.3,1.6-1,2.2c-0.6,0.6-1.4,1-2.2,1h-70.4c-0.8,0-1.6-0.3-2.2-1c-0.6-0.6-1-1.4-1-2.2v-16.1c0-8.8,2.1-16.6,6.3-23.4
		c4.2-6.9,9.3-12.4,15.3-16.8l14.6-10.3c3.5-2.4,6.3-4.4,8.4-5.9c2.1-1.5,3.7-2.9,4.9-4.1c1.2-1.2,1.9-2.4,2.3-3.6
		c0.4-1.2,0.6-2.8,0.6-4.7c0-3.4-1.2-5.8-3.6-7.3c-2.4-1.5-6.8-2.2-13.2-2.2c-4.9,0-10,0.2-15.6,0.6c-5.5,0.4-10.7,0.9-15.6,1.4
		h-0.3c-0.8,0-1.5-0.3-2.1-1c-0.5-0.6-0.8-1.4-0.8-2.2v-12.3c0-0.8,0.3-1.5,0.9-2c0.6-0.5,1.3-0.8,2.1-1c4.4-1.4,9.7-2.5,15.7-3.5
		c6.1-1,12.1-1.4,18-1.4c14.6,0,24.9,2.5,31.1,7.5C802.3,757.2,805.4,764.7,805.4,774.9L805.4,774.9z"/>
        <path class="st0" d="M864.4,781.5c0-0.6-0.2-1-0.6-1c-0.1,0-0.3,0.1-0.5,0.3l-24.8,33.9c-0.2,0.2-0.3,0.5-0.3,1
		c0,0.4,0.3,0.6,1,0.6h25.3V781.5L864.4,781.5z M904.3,834.1c0,0.8-0.3,1.6-0.9,2.2c-0.6,0.6-1.4,0.9-2.2,0.9h-10.4v23.3
		c0,0.8-0.3,1.6-0.9,2.2c-0.6,0.6-1.3,1-2.1,1h-21c-0.8,0-1.6-0.3-2.1-1c-0.6-0.6-0.9-1.4-0.9-2.2v-23.3h-45.7
		c-0.8,0-1.6-0.3-2.2-0.9c-0.6-0.6-0.9-1.4-0.9-2.2v-15.4c0-1.6,0.6-3.2,1.7-4.9l50-65.5c0.5-0.7,1.1-1.3,1.7-1.7
		c0.6-0.4,1.4-0.5,2.4-0.5h16.9c0.8,0,1.6,0.3,2.2,0.9c0.6,0.6,1,1.4,1,2.2v67.1h10.4c0.8,0,1.6,0.3,2.2,1c0.6,0.6,0.9,1.4,0.9,2.2
		V834.1L904.3,834.1z"/>
        <path class="st1" d="M511.2,130.3c148.9,0,269.7,120.8,269.7,269.7c0,148.9-120.8,269.7-269.7,269.7S241.4,548.8,241.4,400
		C241.7,250.9,362.3,130.3,511.2,130.3L511.2,130.3z"/>
        <path class="st2" d="M510.9,559.4c-50.9,0-102.2-3.6-152.6-11.1c34.7,32.2,90.3,53,152.6,53c62.5,0,117.8-20.8,152.8-53l0,0
		C613.3,555.7,561.9,559.4,510.9,559.4L510.9,559.4z"/>
        <path class="st2" d="M679.5,373.8c-5.6,28.2-78.2,44.7-168.3,44.7l0,0c-90.1,0-162.5-15.5-168.1-44.7v-0.5c0-2.5,1.6-22,0.6-21.6
		c-121.5,23.3-209.5,46.2-223.6,80.4l0,0c-0.3,0.6-0.5,1.3-0.7,2l0,0c-0.1,0.4-0.3,0.9-0.4,1.3l0,0c-19.1,64.6,171.6,97,300.8,108.3
		c83.8,7.4,146.3,5.4,231.8-4.7c117.8-13.9,252.4-44,252.7-96.9l0,0c0-39.6-92.9-65.1-225.6-90.4
		C677.7,351.4,679.5,371.3,679.5,373.8L679.5,373.8L679.5,373.8z"/>
        <path class="st1" d="M759.8,399.6L759.8,399.6c15,0,27.1,12.3,27.1,27.1c0,7.1-54.2,7.1-54.2,0C732.7,411.8,745,399.6,759.8,399.6
		L759.8,399.6z"/>
        <path class="st1" d="M656.3,442.4L656.3,442.4c15,0,27.1,12.3,27.1,27.1c0,7.1-54.2,7.1-54.2,0
		C629.2,454.7,641.5,442.4,656.3,442.4L656.3,442.4z"/>
        <path class="st1" d="M257.7,399.6L257.7,399.6c15,0,27.1,12.3,27.1,27.1c0,7.1-54.2,7.1-54.2,0
		C230.6,411.8,242.8,399.6,257.7,399.6L257.7,399.6z"/>
        <path class="st1" d="M358.1,442.4L358.1,442.4c15,0,27.1,12.3,27.1,27.1c0,7.1-54.2,7.1-54.2,0C331,454.7,343.3,442.4,358.1,442.4
		L358.1,442.4z"/>
        <path class="st1" d="M511,456L511,456c15,0,27.1,12.3,27.1,27.1c0,7.1-54.2,7.1-54.2,0C484,468.2,496.2,456,511,456L511,456z"/>
        <path class="st1" d="M343.1,363.1l0,13.7c5.6,29.2,78.2,44.7,168.3,44.7s162.8-16.4,168.3-44.7v-13.7
		c-4.9,24.8-78.2,44.7-168.3,44.7S347.7,387.9,343.1,363.1L343.1,363.1z"/>
        <path class="st3" d="M343.1,366c4.9,24.8,78.2,44.7,168.3,44.7l0,0c90.1,0,163.4-19.4,168.3-44.7v-2.9
		c-2.6-91.2-77.1-161.5-168.5-161.5C421.5,201.6,343.1,275.2,343.1,366L343.1,366z"/>
</g>
</svg>
