<svg height="40" viewBox="0 0 162 40" width="162" xmlns="http://www.w3.org/2000/svg"><g fill="none" transform="translate(2)"><path d="m10 14c2.838-1.769 5.267-2.218 8-2-1.075.651-1.519.981-2 1 .866.4 1.665.43 3 1-.091-.27.264-.15 1 0 1.426-3.627 4.239-5.726 8-6l-13-8-13 8c3.672.274 6.426 2.283 8 6z" fill="#333"/><path d="m10.555 13.5c2.587-1.5 2.928-1.825 5.162-1.178-.588.206 1.041.413.747.913.676-.088 1.47-.059 2.352.147.353.088.706.206 1.058.353.47-.912 1-1.706 1.588-2.412v-1.029c-.176-1.471-2.852-2.647-6.174-2.647s-5.998 1.176-6.174 2.647v1.029c.529.647 1 1.353 1.441 2.176z" fill="#535353"/><path d="m19.355 13c-.201.264-.547.116-.968 0-.791-.15-1.57-.18-1.935 0-.009-.593.423-.918.968-1-2.189-.775-4.554-.332-6.774 1-2.424-3.932-5.886-6-10.645-6v21l14.516 5 15.484-5v-21c-4.875 0-8.365 2.127-10.645 6z" fill="#ff732b"/><path d="m0 28 14.516 5 15.484-5v3l-15.484 9-14.516-9zm2.058-4.765v-13.824c2.558 0 4.851 1.765 6.909 5.294.5 1.088.5 1.765 0 2.059-.735.441-1.617-.147-2.352-1.765-.794.676-1.205 2.353-1.235 5-.235-.676-.323-1.471-.235-2.353-2.293.882-2.234 3.706-3.087 5.588zm26.461 0v-13.824c-2.558 0-4.851 1.765-6.909 5.294 2.94 1.971 5.233 4.794 6.909 8.529z" fill="#ffddcd"/><ellipse cx="8.526" cy="25.588" fill="#fff" rx="2.94" ry="2.941"/><ellipse cx="22.639" cy="25.588" fill="#fff" rx="2.94" ry="2.941"/><ellipse cx="8.526" cy="25.588" fill="#333" rx="1.47" ry="1.471"/><ellipse cx="22.639" cy="25.588" fill="#333" rx="1.47" ry="1.471"/><ellipse cx="19.699" cy="20.294" fill="#ed4d14" rx="1.47" ry="1"/><ellipse cx="10.878" cy="20.294" fill="#ed4d14" rx="1.47" ry="1"/><path d="m16.759 36.029h-1.029v-1.118c.911-.294 1.617-1.5 1.617-2.118 0-.735-.911-1.029-2.058-1.029s-2.058.294-2.058 1.029c0 .647.706 1.824 1.617 2.118v1.118c-1.529-.029-3.234-.265-3.381-1.382-.029-.235-.265-.412-.5-.382-.235.029-.412.265-.382.5.265 1.941 2.852 2.147 4.792 2.147h1.382c.235 0 .441-.206.441-.441s-.206-.441-.441-.441z" fill="#333"/><path d="m11.466 6.941v-4.706l-1.764 1.029v3.676c-.412.294-.676.765-.676 1.294 0 .882.706 1.559 1.558 1.559.853 0 1.558-.706 1.558-1.559 0-.529-.265-1.029-.676-1.294z" fill="#48a1e6"/><path d="m53.789 25.1c-4.656 0-7.789-2.367-7.789-6.669 0-4.244 3.161-6.583 7.789-6.669v-1.761h2.96v1.761c4.598.087 7.789 2.512 7.789 6.669 0 4.244-3.19 6.64-7.789 6.669v2.252h-2.96zm0-2.743v-7.853c-3.104.029-4.656 1.617-4.656 3.927 0 2.541 1.667 3.898 4.656 3.927zm2.96-7.853v7.853c3.075-.029 4.656-1.328 4.656-3.927 0-2.281-1.494-3.898-4.656-3.927zm15.089 1.472c3.593 0 5.92 2.454 5.92 5.717s-2.328 5.717-5.92 5.717c-3.593 0-5.92-2.454-5.92-5.717s2.328-5.717 5.92-5.717zm0 8.835c1.724 0 2.96-1.241 2.96-3.118 0-1.848-1.293-3.118-2.96-3.118-1.638 0-2.931 1.213-2.931 3.118 0 1.819 1.236 3.118 2.931 3.118zm8.335-8.575h2.788v10.913h-2.788zm6.093 5.197 4.685 5.717h-3.621l-4.311-5.514 3.937-5.399h3.506zm15.232 4.1c-.92 1.241-2.558 1.906-4.311 1.906-3.535 0-5.892-2.281-5.892-5.717 0-3.176 2.328-5.717 5.633-5.717 1.782 0 3.363.462 4.368 1.472l-1.293 2.194c-.833-.808-1.724-1.068-2.702-1.068-1.552 0-3.018 1.184-3.018 3.118s1.494 3.118 3.133 3.118c1.178 0 2.098-.549 2.788-1.328zm6.984 1.877h-.144c-3.794 0-5.892-2.483-5.892-5.717 0-2.945 2.069-5.717 5.863-5.717h.172v-5.803h2.788v5.803h.201c3.736 0 5.834 2.512 5.834 5.717 0 3.262-1.897 5.717-5.834 5.717h-.201v4.591h-2.788zm-.057-2.598h.086v-6.236h-.201c-2.041 0-2.874 1.444-2.874 3.118-.029 1.819.977 3.118 2.989 3.118zm2.845-6.236v6.236h.086c2.012 0 2.96-1.299 2.96-3.118 0-1.617-.92-3.118-2.874-3.118zm13.68-2.598c3.593 0 5.92 2.454 5.92 5.717s-2.328 5.717-5.92 5.717-5.92-2.454-5.92-5.717 2.328-5.717 5.92-5.717zm0 8.835c1.724 0 2.96-1.241 2.96-3.118 0-1.848-1.293-3.118-2.96-3.118-1.638 0-2.931 1.213-2.931 3.118 0 1.819 1.236 3.118 2.931 3.118zm8.335-8.575h2.788v1.039c.69-.722 1.954-1.299 3.363-1.299 2.989 0 4.915 2.339 4.915 5.543 0 3.32-2.27 5.89-5.748 5.89-.977 0-1.897-.173-2.529-.52v5.11h-2.788zm2.759 3.551v4.417c.747.491 1.38.635 2.299.635 1.926 0 3.046-1.415 3.046-3.234 0-1.732-1.006-3.003-2.845-3.003-.948-.029-1.811.433-2.5 1.184zm9.053 4.764h1.38c.776-1.01 1.38-3.234 1.523-5.688l.172-2.627h8.018v8.315h1.811v5.139h-2.644v-2.541h-7.702v2.541h-2.587v-5.139zm4.254 0h4.024v-5.688h-2.644l-.086 1.126c-.201 2.281-.805 3.898-1.293 4.562z" fill="#333"/></g></svg>