<svg width="358px" height="104px" viewBox="0 0 358 104" xmlns="http://www.w3.org/2000/svg">
    <g transform="scale(2 2)">
    <g id="Health-Samurai" stroke="none" stroke-width="1" fill="none" fill-rule="evenodd" transform="translate(-267.000000, -31.000000)">
        <g id="Group-18" transform="translate(267.000000, 31.000000)">
            <g id="circle-logo" fill-rule="nonzero">
                <circle id="Oval" fill="#EA4A35" cx="26" cy="26" r="26"></circle>
                <path d="M14.2749838,26.401932 C14.1519685,26.0328859 14.0289531,25.9098706 13.659907,25.9098706 C12.5690938,25.8984542 11.4801706,25.8162713 10.4,25.6638398 C10.5203547,26.3300726 10.6847355,26.9875956 10.8920614,27.6320856 C11.6916613,30.5844542 13.659907,32.4296847 16.6122758,33.5983307 C18.0884601,34.1518998 23.501136,34.7669766 23.8701821,34.7669766 C22.3324901,34.0288844 20.7332903,33.2907923 19.1955983,32.3681771 C16.830512,31.108922 15.061061,28.9634627 14.2749838,26.401932 Z M21.4344779,22.5269481 C20.6963858,22.2194097 20.0198013,21.973379 19.2817091,21.6658406 C17.1904479,20.804733 17.2519556,21.0507638 15.4682329,19.8206102 C15.0181307,21.0649197 14.7689822,22.372949 14.7301407,23.695594 C14.7029548,26.2216574 15.8647462,28.6135808 17.8670325,30.1539005 C20.0198013,31.9376233 21.8650317,32.6757155 24.4483542,33.536823 C24.8174003,33.6598383 25.063431,33.7828537 25.6170002,33.9673767 C25.6170002,32.9832539 25.7400156,28.3086701 25.3709695,26.8324858 C24.9404157,24.8027323 23.525739,23.3880556 21.4344779,22.5269481 Z M30.0455532,21.653539 C28.7723442,16.4069339 26.1090617,13.8666667 26.1090617,13.8666667 C26.1090617,13.8666667 23.4088745,16.4991954 22.1602685,21.653539 C24.1683433,22.3573779 25.6647005,24.0565125 26.1090617,26.137449 C26.6872338,22.6499634 30.0455532,21.653539 30.0455532,21.653539 Z M37.9123856,26.401932 C37.1263084,28.9634627 35.3568575,31.108922 32.9917711,32.3681771 C31.4540791,33.2907923 29.8548794,34.0288844 28.3171873,34.7669766 C28.6862335,34.7669766 34.0989093,34.1518998 35.5750937,33.5983307 C38.5274624,32.4296847 40.4957082,30.5844542 41.295308,27.6320856 C41.502634,26.9875956 41.6670147,26.3300726 41.7873694,25.6638398 C40.7071988,25.8162713 39.6182757,25.8984542 38.5274624,25.9098706 C38.1584163,25.9098706 38.035401,26.0328859 37.9123856,26.401932 Z M30.7774946,22.5269481 C28.6862335,23.3880556 27.2715568,24.8027323 26.841003,26.8324858 C26.4719569,28.3086701 26.5949723,32.9832539 26.5949723,33.9673767 C27.1485414,33.7828537 27.3945721,33.6598383 27.7636182,33.536823 C30.3469409,32.6757155 32.1921713,31.9376233 34.3449401,30.1539005 C36.3472263,28.6135808 37.5090177,26.2216574 37.4818318,23.695594 C37.4429903,22.372949 37.1938419,21.0649197 36.7437397,19.8206102 C34.9600169,21.0507638 35.0215245,20.804733 32.9302634,21.6658406 C32.1921713,21.973379 31.5155868,22.2194097 30.7774946,22.5269481 Z" id="samurai-copy" fill="#FFFFFF"></path>
            </g>
            <path d="M83,19.8982524 L83,10.9780423 L83,10.9780423 C83,8.7810302 84.7810302,7 86.9780423,7 L87.5847302,7 L96.450875,7 L96.450875,10.9780423 L87.5847302,10.9780423 L87.5847302,13.5319925 L95.6109245,13.5319925 L95.6109245,17.2275703 L87.5847302,17.2275703 L87.5847302,19.899214 L96.5675348,19.899214 L96.5675348,23.8772563 L87.4654892,23.8772563 L86.9790039,23.8772563 C84.7814607,23.8772563 83,22.0957956 83,19.8982524 Z" id="Path" fill="#404040"></path>
            <path d="M99,24 L104.391792,11.1431724 L105.265161,9.06060927 C105.788674,7.81228251 107.010143,7 108.363799,7 C109.717312,7 110.938505,7.81261357 111.461234,9.06111346 L112.314682,11.0995121 L117.71593,24 L112.74524,24 L111.52007,20.9861496 L105.067508,20.9861496 L103.877343,24 L99,24 Z M106.432123,17.3096774 L110.175309,17.3096774 L108.315341,12.5387097 L106.432123,17.3096774 Z" id="Combined-Shape" fill="#404040"></path>
            <polygon id="Path" fill="#404040" points="120 23.8772563 120 7 124.624237 7 124.624237 19.7815205 132.719564 19.7815205 132.719564 23.8772563"></polygon>
            <polygon id="Path" fill="#404040" points="133 11.1075052 133 7 147.718353 7 147.718353 11.1075052 142.675737 11.1075052 142.675737 23.8772563 138.030915 23.8772563 138.030915 11.1075052"></polygon>
            <path d="M150,19.2523106 L150,7 L154.624946,7 L154.624946,13.3201441 L160.566312,13.3201441 L160.566312,7 L160.566312,7 C163.127033,7 165.202907,9.07587451 165.202907,11.6365955 L165.202907,23.8772563 L160.566312,23.8772563 L160.566312,17.4629574 L154.624946,17.4629574 L154.624946,23.8772563 L154.624946,23.8772563 C152.070659,23.8772563 150,21.8065976 150,19.2523106 Z" id="Path" fill="#404040"></path>
            <path d="M64,23.8772563 L64,18.2454204 L64,11.6249458 C64,9.07065875 66.0706587,7 68.6249458,7 L68.6249458,13.3201441 L74.5663118,13.3201441 L74.5663118,7 L79.2029073,7 L79.2029073,19.2406608 C79.2029073,21.8013818 77.1270328,23.8772563 74.5663118,23.8772563 L74.5663118,17.4629574 L68.6249458,17.4629574 L68.6249458,23.8772563 L64,23.8772563 Z" id="Combined-Shape" fill="#404040"></path>
            <path d="M138,43.6435892 L138,28 L145.565788,28 C147.894306,28 149.63137,28.5599927 150.777031,29.6799949 C151.721829,30.6036331 152.194221,31.8399807 152.194221,33.3890747 C152.194221,34.5454406 151.90409,35.527246 151.323821,36.3345203 C150.743551,37.1417947 149.936393,37.7599684 148.902322,38.1890602 L152.718693,43.6435892 L147.596722,43.6435892 L144.371777,38.909058 L142.430115,38.909058 L142.430115,43.6435892 L138,43.6435892 Z M142.430115,35.516341 L145.353767,35.516341 C146.105142,35.516341 146.689123,35.3472523 147.105727,35.0090698 C147.522331,34.6708873 147.730629,34.2036206 147.730629,33.6072558 C147.730629,33.0036183 147.520471,32.5436243 147.100147,32.22726 C146.679823,31.9108957 146.090263,31.752716 145.331449,31.752716 L142.430115,31.752716 L142.430115,35.516341 Z" id="Combined-Shape" fill="#404040"></path>
            <path d="M121.599976,36.7817917 L121.599976,28 L126.097044,28 L126.097044,36.6945192 C126.097044,37.7927032 126.357418,38.6217834 126.878172,39.1817845 C127.398927,39.7417856 128.120534,40.0217819 129.043014,40.0217819 C129.965495,40.0217819 130.687101,39.7526945 131.207856,39.2145117 C131.728611,38.6763288 131.988985,37.8727029 131.988985,36.8036098 L131.988985,28 L136.497212,28 L136.497212,36.6727011 C136.497212,37.91634 136.32239,39.0035985 135.97274,39.9345095 C135.62309,40.8654204 135.117222,41.6217742 134.455119,42.2035936 C133.793016,42.7854129 133.006316,43.2199527 132.094995,43.507226 C131.183674,43.7944993 130.151479,43.9381338 128.998378,43.9381338 C126.654981,43.9381338 124.836086,43.3435961 123.541638,42.1545028 C122.24719,40.9654095 121.599976,39.1745237 121.599976,36.7817917 Z" id="Path" fill="#404040"></path>
            <path d="M103,43.6435892 L103,28 L107.686771,28 L111.503142,34.0545272 L115.319512,28 L120.006283,28 L120.006283,43.6435892 L115.587328,43.6435892 L115.587328,34.6654345 L111.503142,40.785416 L111.503142,40.785416 C111.44735,40.785416 111.395229,40.757606 111.364164,40.7112622 L107.340843,34.7090707 L107.340843,43.6435892 L103,43.6435892 Z" id="Path" fill="#404040"></path>
            <path d="M70,41.5817772 L72.4772933,38.7017859 C74.0767549,39.9526975 75.8063793,40.5781439 77.6662183,40.5781439 C78.2539275,40.5781439 78.7040018,40.4817815 79.0164548,40.2890539 C79.3289077,40.0963262 79.4851319,39.818148 79.4851319,39.4545109 C79.4851319,39.1199648 79.3010106,38.8472411 78.9327624,38.6363316 C78.5645143,38.4254221 77.8522066,38.1999705 76.795818,37.95997 C76.252745,37.8363334 75.7822128,37.7217894 75.3842072,37.6163347 C74.9862016,37.5108799 74.5640245,37.3781544 74.1176631,37.218154 C73.6713017,37.0581537 73.2919003,36.8908832 72.9794473,36.7163374 C72.6669943,36.5417916 72.3619853,36.3308852 72.0644111,36.083612 C71.7668368,35.8363388 71.528781,35.5690695 71.3502364,35.2817962 C71.1716919,34.9945229 71.0284864,34.6581637 70.9206157,34.2727084 C70.8127451,33.8872531 70.7588105,33.4654404 70.7588105,33.0072576 C70.7588105,31.5308911 71.3186137,30.3272704 72.4382368,29.3963594 C73.55786,28.4654485 75.0624472,28 76.9520437,28 C79.5781365,28 81.7727137,28.6909001 83.5358411,30.072721 L81.3152044,33.1381663 C79.8198937,32.1127097 78.3283252,31.5999891 76.8404539,31.5999891 C76.319699,31.5999891 75.9216994,31.6963515 75.6464432,31.8890792 C75.371187,32.0818068 75.233561,32.3345308 75.233561,32.6472587 C75.233561,33.0108958 75.4176823,33.2927103 75.7859304,33.4927107 C76.1541786,33.6927111 76.8925236,33.9163446 78.0009877,34.1636178 C78.9829827,34.3745273 79.8161781,34.6054334 80.5005989,34.856343 C81.1850197,35.1072526 81.8006172,35.4217939 82.3474099,35.7999765 C82.8942026,36.1781591 83.3015012,36.6381531 83.569318,37.1799723 C83.8371349,37.7217916 83.9710413,38.3563288 83.9710413,39.083603 C83.9710413,40.6617879 83.3833409,41.9054081 82.2079227,42.8145008 C81.0325044,43.7235935 79.4628237,44.1781331 77.4988337,44.1781331 C76.0555985,44.1781331 74.6867775,43.9581359 73.3923295,43.518135 C72.0978815,43.0781342 70.9671163,42.432688 70,41.5817772 Z" id="Path" fill="#404040"></path>
            <path d="M84,43.7526798 L89.9693122,29.9611297 C90.4845894,28.7706288 91.6578514,28 92.9550804,28 C94.2521708,28 95.4251663,28.7709549 95.939678,29.9616359 L101.899002,43.7526798 L97.1452769,43.7526798 L95.9735841,40.9599609 L89.8026689,40.9599609 L88.6644531,43.7526798 L84,43.7526798 Z M91.1082694,37.589062 L94.7014605,37.589062 L92.9160239,33.1381663 L91.1082694,37.589062 Z" id="Combined-Shape" fill="#404040"></path>
            <path d="M154,43.7526798 L159.969312,29.9611297 C160.484589,28.7706288 161.657851,28 162.95508,28 C164.252171,28 165.425166,28.7709549 165.939678,29.9616359 L171.899002,43.7526798 L167.145277,43.7526798 L165.973584,40.9599609 L159.802669,40.9599609 L158.664453,43.7526798 L154,43.7526798 Z M161.299988,37.7417888 L164.893179,37.7417888 L163.107742,33.2908931 L161.299988,37.7417888 Z" id="Combined-Shape" fill="#404040"></path>
            <g id="Group-16" transform="translate(174.000000, 28.500000)">
                <path d="M0,15.4107777 L0,6 L4.46359146,6 L4.46359146,8.78508562 L4.46359146,10.9471862 C4.46359146,13.4123597 2.46517349,15.4107777 2.11889088e-14,15.4107777 Z" id="Combined-Shape" fill="#404040"></path>
                <path d="M2.25,0 L2.25,0 C3.49264069,-2.28269391e-16 4.5,1.00735931 4.5,2.25 L4.5,4.5 L0,4.5 L0,2.25 C-1.52179594e-16,1.00735931 1.00735931,2.28269391e-16 2.25,0 Z" id="Rectangle-5" fill="#EA4A35"></path>
            </g>
        </g>
    </g>
    </g>
</svg>