<svg xmlns="http://www.w3.org/2000/svg" xmlns:xlink="http://www.w3.org/1999/xlink" version="1.0" width="175.748"
   height="46.993999" viewBox="0 0 175.748 46.994" id="svg2218">
   <g id="switch2222">
      <g id="g2226">
         <g id="Layer_1">
            <polygon points="0,0.803 46.191,0.803 46.191,46.994 0,46.994 0,0.803 " style="fill-rule:evenodd"
               id="polygon2229" />
            <polygon points="1.336,2.138 44.855,2.138 44.855,45.658 1.336,45.658 1.336,2.138 "
               style="fill:#fff200;fill-rule:evenodd" id="polygon2231" />
            <path
               d="M 3.645,36.865 L 9.322,42.652 L 22.623,29.157 L 36.369,42.93 L 42.129,37.226 L 28.521,23.62 L 31.137,21.088 L 31.137,15.69 L 32.779,14.299 L 32.779,18.528 L 34.894,20.253 L 41.21,13.937 L 43.241,15.495 C 44.438,11.071 37.509,1.026 31.777,6.591 L 25.098,13.213 L 26.462,14.855 L 23.067,18.166 L 19.784,14.938 L 21.509,13.379 L 14.191,6.312 C 8.682,1.776 3.033,8.678 2.838,15.411 L 4.841,13.742 L 10.99,20.365 L 13.188,18.529 L 13.188,14.466 L 14.551,15.495 L 14.551,20.81 L 17.222,23.481 L 3.645,36.865 L 3.645,36.865 z "
               style="fill-rule:evenodd" id="path2233" />
            <path
               d="M 57.989,6.34 L 57.989,10.347 L 59.714,10.347 C 62.079,9.902 61.439,6.507 59.714,6.34 L 57.989,6.34 L 57.989,6.34 z M 53.092,2.361 L 53.092,20.504 L 57.989,20.504 L 57.989,14.605 L 62.163,20.504 L 67.951,20.504 L 62.804,13.242 C 68.759,10.348 66.533,2.445 60.272,2.362 L 53.092,2.362 L 53.092,2.361 z M 75.742,11.432 C 77.356,11.432 78.663,12.656 78.663,14.159 C 78.663,15.661 77.355,16.886 75.742,16.886 C 74.156,16.886 72.848,15.661 72.848,14.159 C 72.848,12.656 74.156,11.432 75.742,11.432 L 75.742,11.432 z M 74.712,7.425 C 76.048,7.425 77.3,7.87 78.329,8.593 L 78.329,7.898 L 83.115,7.898 L 83.143,20.503 L 78.301,20.503 L 78.329,19.724 C 77.3,20.447 76.048,20.865 74.712,20.865 C 71.15,20.865 68.229,17.86 68.229,14.159 C 68.229,10.458 71.151,7.425 74.712,7.425 L 74.712,7.425 z M 85.676,7.898 L 90.768,7.898 L 90.768,20.503 L 85.676,20.503 L 85.676,7.898 L 85.676,7.898 z M 88.235,0.691 C 89.711,0.691 90.907,1.915 90.907,3.39 C 90.907,4.865 89.711,6.089 88.235,6.089 C 86.733,6.089 85.536,4.864 85.536,3.39 C 85.537,1.916 86.733,0.691 88.235,0.691 L 88.235,0.691 z M 126.886,7.898 L 131.978,7.898 L 131.978,20.503 L 126.886,20.503 L 126.886,7.898 L 126.886,7.898 z M 129.418,0.691 C 130.921,0.691 132.117,1.915 132.117,3.39 C 132.117,4.865 130.921,6.089 129.418,6.089 C 127.943,6.089 126.747,4.864 126.747,3.39 C 126.747,1.916 127.943,0.691 129.418,0.691 L 129.418,0.691 z M 91.714,7.898 L 91.714,11.905 L 93.467,11.905 L 93.467,20.503 L 98.393,20.503 L 98.393,11.905 L 103.012,11.905 L 103.012,20.503 L 108.104,20.503 L 108.104,11.85 L 111.276,11.85 L 111.276,7.954 L 107.964,7.954 L 107.964,5.144 C 107.881,4.115 110.302,3.697 111.137,4.532 L 111.137,0.413 C 106.462,-1.062 102.678,1.582 102.705,5.672 L 102.705,7.898 L 98.364,7.898 L 98.364,5.144 C 98.308,4.115 100.424,3.697 101.647,4.532 L 101.647,0.413 C 97.584,-0.783 93.244,1.192 93.272,5.644 L 93.272,7.87 L 91.714,7.898 L 91.714,7.898 z M 118.538,20.865 C 122.907,20.837 124.52,19.029 125.467,16.385 L 121.043,16.385 C 119.039,18.945 116.117,17.081 116.257,14.994 L 125.607,14.994 C 125.607,9.874 122.879,7.453 118.539,7.453 C 114.199,7.453 111.472,10.514 111.472,14.243 C 111.472,17.972 114.643,20.893 118.538,20.865 L 118.538,20.865 z M 116.896,12.017 C 116.952,10.486 120.291,10.486 120.513,12.017 L 116.896,12.017 L 116.896,12.017 z M 153.209,20.865 C 157.605,20.837 159.22,19.029 160.165,16.385 L 155.713,16.385 C 153.71,18.945 150.788,17.081 150.928,14.994 L 160.278,14.994 C 160.278,9.874 157.579,7.453 153.21,7.453 C 148.869,7.453 146.143,10.514 146.143,14.243 C 146.143,17.972 149.313,20.893 153.209,20.865 L 153.209,20.865 z M 151.567,12.017 C 151.623,10.486 154.962,10.486 155.184,12.017 L 151.567,12.017 L 151.567,12.017 z M 144.806,8.149 L 143.303,11.21 C 141.411,10.625 139.574,10.737 139.63,11.265 C 139.686,11.599 139.38,12.183 142.329,12.601 C 146.725,13.296 146.364,21.477 138.99,20.865 C 136.959,20.726 135.317,20.197 133.954,19.39 L 135.596,16.106 C 137.906,17.247 140.131,17.915 140.298,16.774 C 140.493,15.355 137.877,15.856 136.291,14.659 C 133.453,12.906 135.066,7.48 139.714,7.424 C 141.355,7.314 143.053,7.592 144.806,8.149 L 144.806,8.149 z M 162.225,7.898 L 162.225,20.503 L 166.984,20.503 L 166.984,12.795 C 167.123,10.875 170.907,10.541 170.935,12.795 L 170.935,20.503 L 175.748,20.503 L 175.748,12.601 C 175.637,8.177 170.99,6.034 166.788,8.844 L 166.788,7.898 L 162.225,7.898 L 162.225,7.898 z M 55.902,28.211 L 52.73,46.91 L 61.718,46.91 C 67.812,46.91 70.316,39.342 65.975,36.754 C 69.676,33.331 67.784,28.184 63.805,28.128 L 55.902,28.211 L 55.902,28.211 z M 59.547,39.369 L 58.907,42.458 L 60.994,42.458 C 63.359,42.569 63.081,39.369 61.718,39.369 L 59.547,39.369 L 59.547,39.369 z M 60.604,32.663 L 60.076,35.168 L 60.716,35.195 C 62.636,35.306 63.749,32.663 61.439,32.663 L 60.604,32.663 L 60.604,32.663 z M 68.006,46.938 L 73.46,46.938 L 75.102,43.654 L 81.279,43.654 L 82.197,46.994 L 87.233,46.994 L 82.865,28.322 L 77.717,28.322 L 68.006,46.938 L 68.006,46.938 z M 76.883,39.731 L 80.278,39.731 L 79.193,34.805 L 76.883,39.731 L 76.883,39.731 z M 88.959,46.994 L 93.996,46.994 L 95.275,35.279 L 102.482,46.938 L 107.88,46.938 L 110.134,28.21 L 105.098,28.21 L 103.679,39.925 L 96.471,28.154 L 91.268,28.154 L 88.959,46.994 L 88.959,46.994 z M 113.752,28.155 L 110.218,46.938 L 115.533,46.938 L 116.952,39.925 L 121.71,46.938 L 128.694,46.938 L 121.877,37.087 L 130.587,28.127 L 123.825,28.127 L 117.87,34.749 L 118.816,28.127 L 113.752,28.155 L 113.752,28.155 z "
               style="fill-rule:evenodd" id="path2235" />
         </g>
      </g>
   </g>
</svg>
