<svg xmlns="http://www.w3.org/2000/svg" width="230" height="44" viewBox="0 0 230 44">
    <g fill="none" fill-rule="evenodd">
        <path fill="#181818" fill-rule="nonzero" d="M78.502 37.182c1.352 0 2.544-.282 3.575-.845 1.031-.563 1.816-1.365 2.353-2.405l-2.496-1.456c-.399.641-.897 1.122-1.495 1.443-.598.32-1.252.481-1.963.481-1.23 0-2.24-.394-3.029-1.183-.789-.789-1.183-1.842-1.183-3.159 0-1.317.399-2.37 1.196-3.159.797-.789 1.803-1.183 3.016-1.183.71 0 1.365.16 1.963.481.598.32 1.096.802 1.495 1.443l2.496-1.456c-.52-1.04-1.296-1.837-2.327-2.392-1.031-.555-2.232-.832-3.601-.832-1.456 0-2.752.303-3.887.91-1.135.607-2.024 1.447-2.665 2.522-.641 1.075-.962 2.297-.962 3.666 0 1.37.32 2.596.962 3.679.641 1.083 1.534 1.928 2.678 2.535 1.144.607 2.435.91 3.874.91zM90.254 37v-9.23l4.602 7.774h1.404l4.68-7.748V37h2.938l-.026-13.884h-3.042L95.636 31.8l-4.94-8.684H87.29V37h2.964zm22.048.182c1.04 0 1.928-.16 2.665-.481.737-.32 1.304-.784 1.703-1.391V37h3.068v-8.138c0-1.976-.542-3.454-1.625-4.433-1.083-.98-2.648-1.469-4.693-1.469-1.144 0-2.227.147-3.25.442-1.023.295-1.898.72-2.626 1.274l1.274 2.366c.52-.433 1.157-.771 1.911-1.014s1.521-.364 2.301-.364c1.144 0 2.006.26 2.587.78.58.52.871 1.265.871 2.236v.208H112.9c-1.993 0-3.454.377-4.381 1.131s-1.391 1.755-1.391 3.003c0 .797.212 1.512.637 2.145.425.633 1.027 1.127 1.807 1.482s1.69.533 2.73.533zm.676-2.366c-.832 0-1.482-.173-1.95-.52-.468-.347-.702-.815-.702-1.404 0-1.23.936-1.846 2.808-1.846h3.354v1.612c-.26.693-.706 1.226-1.339 1.599s-1.356.559-2.171.559zm14.04 7.228V35.31c1.092 1.248 2.574 1.872 4.446 1.872 1.352 0 2.561-.295 3.627-.884 1.066-.59 1.902-1.426 2.509-2.509s.91-2.327.91-3.731-.303-2.643-.91-3.718c-.607-1.075-1.443-1.907-2.509-2.496-1.066-.59-2.275-.884-3.627-.884-.953 0-1.824.165-2.613.494-.789.33-1.452.823-1.989 1.482v-1.82h-3.094v18.928h3.25zM131.1 34.4c-.78 0-1.482-.178-2.106-.533-.624-.355-1.118-.862-1.482-1.521-.364-.659-.546-1.421-.546-2.288 0-.867.182-1.63.546-2.288.364-.659.858-1.166 1.482-1.521s1.326-.533 2.106-.533c1.196 0 2.18.399 2.951 1.196.771.797 1.157 1.846 1.157 3.146 0 1.3-.386 2.349-1.157 3.146-.771.797-1.755 1.196-2.951 1.196zm16.25 2.6V25.872h4.862v-2.756h-13v2.756h4.888V37h3.25zm12.818.182c1.421 0 2.695-.303 3.822-.91 1.127-.607 2.006-1.452 2.639-2.535.633-1.083.949-2.31.949-3.679 0-1.37-.316-2.591-.949-3.666-.633-1.075-1.512-1.915-2.639-2.522-1.127-.607-2.4-.91-3.822-.91-1.404 0-2.67.303-3.796.91-1.127.607-2.006 1.447-2.639 2.522-.633 1.075-.949 2.297-.949 3.666 0 1.37.316 2.596.949 3.679.633 1.083 1.512 1.928 2.639 2.535 1.127.607 2.392.91 3.796.91zm0-2.782c-1.196 0-2.18-.399-2.951-1.196-.771-.797-1.157-1.846-1.157-3.146 0-1.3.386-2.349 1.157-3.146.771-.797 1.755-1.196 2.951-1.196 1.196 0 2.184.399 2.964 1.196.78.797 1.17 1.846 1.17 3.146 0 1.3-.39 2.349-1.17 3.146-.78.797-1.768 1.196-2.964 1.196zM173.74 37v-9.23l4.602 7.774h1.404l4.68-7.748V37h2.938l-.026-13.884h-3.042l-5.174 8.684-4.94-8.684h-3.406V37h2.964zm22.048.182c1.04 0 1.928-.16 2.665-.481.737-.32 1.304-.784 1.703-1.391V37h3.068v-8.138c0-1.976-.542-3.454-1.625-4.433-1.083-.98-2.648-1.469-4.693-1.469-1.144 0-2.227.147-3.25.442-1.023.295-1.898.72-2.626 1.274l1.274 2.366c.52-.433 1.157-.771 1.911-1.014s1.521-.364 2.301-.364c1.144 0 2.006.26 2.587.78.58.52.871 1.265.871 2.236v.208h-3.588c-1.993 0-3.454.377-4.381 1.131s-1.391 1.755-1.391 3.003c0 .797.212 1.512.637 2.145.425.633 1.027 1.127 1.807 1.482s1.69.533 2.73.533zm.676-2.366c-.832 0-1.482-.173-1.95-.52-.468-.347-.702-.815-.702-1.404 0-1.23.936-1.846 2.808-1.846h3.354v1.612c-.26.693-.706 1.226-1.339 1.599s-1.356.559-2.171.559zM213.39 37V25.872h4.862v-2.756h-13v2.756h4.888V37h3.25zm12.818.182c1.421 0 2.695-.303 3.822-.91 1.127-.607 2.006-1.452 2.639-2.535.633-1.083.949-2.31.949-3.679 0-1.37-.316-2.591-.949-3.666-.633-1.075-1.512-1.915-2.639-2.522-1.127-.607-2.4-.91-3.822-.91-1.404 0-2.67.303-3.796.91-1.127.607-2.006 1.447-2.639 2.522-.633 1.075-.949 2.297-.949 3.666 0 1.37.316 2.596.949 3.679.633 1.083 1.512 1.928 2.639 2.535 1.127.607 2.392.91 3.796.91zm0-2.782c-1.196 0-2.18-.399-2.951-1.196-.771-.797-1.157-1.846-1.157-3.146 0-1.3.386-2.349 1.157-3.146.771-.797 1.755-1.196 2.951-1.196 1.196 0 2.184.399 2.964 1.196.78.797 1.17 1.846 1.17 3.146 0 1.3-.39 2.349-1.17 3.146-.78.797-1.768 1.196-2.964 1.196z" transform="translate(-4 -6)"/>
        <path fill="#E85D41" d="M30 36.919c-5.904 2.556-12.517 3.488-17.756 2.28C15.574 45.616 22.273 50 30 50s14.425-4.384 17.756-10.798c-5.239 1.207-11.853.275-17.756-2.282M30 34.315c6.526-4.6 12.464.132 19.422.46.375-1.532.578-3.13.578-4.774l-.003-.09c-3.373-.51-5.962-3.412-5.962-6.928 0 3.875-3.142 7.017-7.017 7.017C33.143 30 30 26.858 30 22.983c0-3.877 3.143-7.019 7.018-7.019s7.017 3.143 7.017 7.019v-.002c0-.419.34-.759.76-.759s.761.34.761.76c0 2.65 1.876 4.861 4.372 5.38C49.094 18.084 40.493 10.002 30 10.002c-.515 0-1.023.024-1.528.064-.038.02-.071.048-.11.069 1.902.466 4.171 2.492 3.974 3.506-.621.675-4.68-.604-5.554-1.466.551 1.11.801 3.716-.337 4.596-1.424-.194-2.512-2.575-2.59-3.811-.324 1.183-3.201 4.32-4.076 4.046-.677-.78.273-3.67 1.688-5.024-.049.002-.095-.006-.144-.005C14.623 15.206 10 22.063 10 30c0 1.645.203 3.243.578 4.775 6.959-.328 12.896-5.061 19.422-.46" transform="translate(-4 -6)"/>
        <path fill="#181818" d="M37.018 28.48c-3.036 0-5.497-2.462-5.497-5.497 0-3.037 2.46-5.498 5.497-5.498 3.036 0 5.497 2.462 5.497 5.498 0 3.035-2.461 5.497-5.497 5.497m0-12.516c-3.875 0-7.018 3.143-7.018 7.019C30 26.858 33.143 30 37.018 30s7.018-3.142 7.018-7.017c0-3.877-3.143-7.019-7.018-7.019" transform="translate(-4 -6)"/>
        <path fill="#181818" d="M51.053 28.48c-3.036 0-5.497-2.462-5.497-5.498 0-.42-.341-.76-.761-.76s-.76.34-.76.76c0 3.877 3.142 7.018 7.018 7.018.42 0 .76-.34.76-.76s-.34-.76-.76-.76M55.883 33.566c-2.271 1.022-4.41 1.305-6.461 1.208-6.958-.328-12.895-5.06-19.422-.46-6.526-4.6-12.463.132-19.422.46-2.051.097-4.191-.186-6.461-1.208 1.617 3.004 4.556 4.812 8.127 5.634 5.239 1.207 11.852.274 17.756-2.28 5.904 2.555 12.517 3.488 17.756 2.281 3.57-.823 6.51-2.63 8.127-5.635" transform="translate(-4 -6)"/>
        <path fill="#ABD26A" d="M19.78 17.005c.874.274 3.751-2.863 4.075-4.047.077 1.236 1.165 3.619 2.59 3.812 1.137-.88.888-3.486.337-4.596.873.863 4.933 2.14 5.554 1.467.197-1.015-2.072-3.042-3.974-3.508.04-.02.071-.047.11-.07 1.493-.843 2.234-2.478 1.767-3.201-1.31.092-2.939 1.9-5.132 2.697-.3-1.67-1.283-3.65-2.434-3.29-.6.188-.755.696-.668.902.262.612 1.5.777 2.014 2.68-2.304.417-4.629-.342-5.813.236-.044.856 1.408 1.898 3.117 1.888.05 0 .095.008.144.006-1.415 1.355-2.366 4.243-1.688 5.024" transform="translate(-4 -6)"/>
    </g>
</svg>
