<svg width="833" height="201" viewBox="0 0 833 201" fill="none" xmlns="http://www.w3.org/2000/svg">
<path d="M30.9279 91.7945H31.5635C48.9788 91.7945 61.0552 83.6359 61.0552 66.8007C61.0552 50.3541 48.8517 44.0085 32.8347 39.0874C24.1905 36.3679 16.5634 33.6484 16.5634 24.7128C16.5634 17.2017 21.0125 13.8347 29.2753 13.8347H30.038C40.3347 13.8347 44.911 17.2017 44.911 29.5043H58.8942C58.8942 9.69061 47.072 0.884521 30.038 0.884521H29.2753C14.2752 0.884521 2.70733 9.0431 2.45309 24.7128C2.19885 38.8284 10.5887 45.692 25.5888 50.8721C34.9957 54.1096 47.072 56.4406 47.072 66.8007C47.072 75.6068 42.2415 78.8444 31.5635 78.8444H30.9279C19.7413 78.8444 14.7837 75.4773 14.7837 63.3042H0.800537C0.800537 82.9884 13.004 91.7945 30.9279 91.7945ZM111.091 2.17953H80.0735V90.4995H94.1837V58.1241H111.091C129.777 58.1241 139.438 48.9295 139.438 30.4108V29.8928C139.438 11.3741 129.777 2.17953 111.091 2.17953ZM125.582 30.4108C125.582 40.9005 122.531 44.915 111.091 44.915H94.1837V15.5182H111.091C122.531 15.5182 125.582 19.2737 125.582 29.8928V30.4108Z" fill="#070707"/>
<path d="M31.8003 200.884C50.7305 200.884 62.1648 191.43 62.1648 174.854C62.1648 163.328 56.3206 157.112 46.6649 155.04V153.486C54.5419 150.507 59.1156 144.55 59.1156 134.579C59.1156 119.945 48.8247 109.974 31.5462 109.974C13.5054 109.974 2.83331 120.722 2.83331 139.759H16.8086C16.8086 127.586 20.2389 122.924 31.5462 122.924C40.9478 122.924 45.0133 126.938 45.0133 135.485C45.0133 144.809 41.0748 148.176 31.5462 148.176H23.4151V161.386H35.3576C44.8862 161.386 48.0624 164.623 48.0624 173.559C48.0624 183.789 43.2346 187.933 31.6732 187.933C18.9684 187.933 14.9029 183.271 14.9029 170.062H0.800537C0.800537 190.135 12.2349 200.884 31.8003 200.884Z" fill="#070707"/>
<path fill-rule="evenodd" clip-rule="evenodd" d="M262.693 200.883H261.922C244.453 200.883 232.635 190.135 232.635 168.508V142.349C232.635 120.722 244.453 109.974 261.922 109.974H262.693C280.291 109.974 291.98 120.722 291.98 142.349V168.508C291.98 190.135 280.291 200.883 262.693 200.883ZM253.879 186.458C256.013 187.489 258.676 187.933 261.922 187.933H262.693C273.483 187.933 277.85 183.142 277.85 168.508V142.349C277.85 140.461 277.777 138.737 277.627 137.165L253.879 186.458ZM247.184 174.355C246.988 172.609 246.893 170.666 246.893 168.508V142.349C246.893 127.715 251.261 122.924 261.922 122.924H262.693C266.157 122.924 268.96 123.418 271.168 124.573L247.184 174.355ZM339.456 199.588H324.813C330.08 171.357 340.998 150.896 354.742 128.881V124.607H323.143V135.226H308.885V111.269H369V132.507C354.1 153.874 344.594 171.098 339.456 199.588Z" fill="#070707"/>
<path d="M726.065 91.7937H726.836C744.305 91.7937 756.636 81.045 756.636 59.4183H742.378C742.378 74.052 737.497 78.8435 726.836 78.8435H726.065C715.403 78.8435 710.522 74.052 710.522 59.4183V33.259C710.522 18.6254 715.403 13.8338 726.065 13.8338H726.836C737.497 13.8338 742.378 18.6254 742.378 33.259H756.636C756.636 11.6323 744.305 0.883667 726.836 0.883667H726.065C708.595 0.883667 696.264 11.6323 696.264 33.259V59.4183C696.264 81.045 708.595 91.7937 726.065 91.7937ZM832.629 15.5173V2.17868H777.524V90.4986H832.629V77.16H791.782V52.6842H823.252V39.4751H791.782V15.5173H832.629Z" fill="#070707"/>
<path d="M435.944 89.5295H450.794L427.679 3.16504H406.243L382.612 89.5295H397.849L404.048 65.0892H429.874L435.944 89.5295ZM407.276 52.0458L416.315 16.2084H417.736L426.646 52.0458H407.276Z" fill="#070707"/>
<path fill-rule="evenodd" clip-rule="evenodd" d="M748.272 191.075L678.495 120.59C674.593 116.676 669.604 114.518 664.501 114.495H615.847L572.021 114.495C566.931 114.528 561.841 116.485 557.95 120.389L544.47 134.005C540.543 137.966 540.545 144.387 544.473 148.348L558.686 162.705C562.614 166.666 569.069 166.728 572.997 162.767L589.622 145.974L611.059 124.319C614.987 120.359 621.261 120.36 625.189 124.322L695.391 195.236C699.293 199.151 704.645 200.861 709.747 200.884H758.401L802.333 200.883C807.423 200.851 812.611 198.992 816.503 195.088L829.524 181.936C833.712 177.712 833.354 171.453 829.426 167.491L815.213 153.134C811.288 149.176 804.928 149.222 801.001 153.169L784.803 169.531L763.509 191.041C759.582 195.002 752.2 195.036 748.272 191.075V191.075Z" fill="#070707"/>
</svg>
