<svg xmlns="http://www.w3.org/2000/svg" preserveAspectRatio="xMinYMin" width="250" height="50" viewBox="0 0 125 25">
  <path fill="#050505" d="M22.07 0v5.73h2.34v3.9h-2.34v13.8H16.8V9.63h-2.24v-3.9h2.24V0h5.27zm11.79 5.2c5.63 0 9.49 4.06 9.49 10.65v.56H30c.46 1.88 1.81 2.86 4.09 2.86 1.05 0 1.9-.3 2.7-.98h5.73c-1.71 3.69-4.64 5.56-8.6 5.56-2.7 0-4.87-.92-6.69-2.83a9.33 9.33 0 01-2.6-6.56c0-2.47.96-4.74 2.7-6.49a9.24 9.24 0 016.53-2.76zm-4.02 7.52h8.27c-.63-1.81-2.11-2.8-4.19-2.8-2.17 0-3.72 1.12-4.08 2.8zm15.68 10.7V0h5.17v23.43h-5.17zm8.5 0V0h5.18v23.43h-5.17zm21.1-15.71V5.73h5.21v17.7H75.3v-1.98a6.86 6.86 0 01-5.24 2.08c-2.14 0-3.98-.7-5.53-2.08a9 9 0 01-3.1-6.95c0-2.54.99-4.81 2.83-6.6a8.22 8.22 0 015.9-2.43c2.14 0 3.79.72 4.97 2.24zm-3.92 11.1a4.18 4.18 0 004.12-4.28 4.3 4.3 0 00-4.31-4.45 4.38 4.38 0 00-4.39 4.38c0 2.47 1.92 4.35 4.58 4.35zm12.28 4.62V5.73h5.27v17.7h-5.27zM93.9 5.47a3.5 3.5 0 110 7 3.5 3.5 0 010-7zm15.86 9.17l-6.17-8.9h6.36l3.03 4.31 1.26-1.79 1.77-2.53h6.36l-1.75 2.53-1.24 1.8h-6.4l.52.73 1.77 2.53 7.1 10.1h-6.52l-2.87-4.13-1.12 1.6-1.75 2.54h-6.52l1.77-2.53 4.4-6.26zM8.4 12.45c3.63 1 5.44 2.38 5.44 5.31 0 3.56-2.8 6.13-7.09 6.13-3.95 0-6.39-2.14-6.75-5.73h4.91v.16c0 .99.79 1.68 1.91 1.68 1.12 0 1.78-.56 1.78-1.55 0-1.45-1.42-1.38-3.63-2.07-3.06-.96-4.54-2.6-4.54-5.28 0-3.46 2.53-5.9 6.75-5.9 3.66 0 6 2.08 6.2 5.44H8.67C8.47 9.5 8.04 9 7.12 9 6.1 9 5.5 9.59 5.5 10.45c0 1.22 1.09 1.51 2.9 2z" />
</svg>
