<svg version="1.1" id="Layer_1" preserveAspectRatio="xMinYMin" xmlns="http://www.w3.org/2000/svg"
	xmlns:xlink="http://www.w3.org/1999/xlink" x="0px" y="0px" viewBox="0 -40 508 92" width="508" height="132"
	style="enable-background:new 0 0 508 92;" xml:space="preserve">
	<style type="text/css">
		[data-logo="space307_st0"] {
			fill: none;
		}

		[data-logo="space307_st1"] {
			fill: #00B2B9;
		}
	</style>
	<rect x="324.4" y="-92.1" data-logo="space307_st0" width="57" height="66" />
	<g>
		<path data-logo="space307_st1" d="M0,12.6L0,12.6c0-0.4,0.1-0.6,0.2-0.9c0.1-0.1,0.2-0.1,0.2-0.2c0.9-1.4,2-2.8,3.1-4C4.9,6,6.3,4.7,7.8,3.7
		c1.5-1.1,2.9-1.9,4.4-2.5C15,0,17.4,0,19.4,0.6c0.9,0.3,1.8,0.6,2.6,1c0.8,0.4,1.7,1,2.5,1.6s1.7,1.3,2.6,2c1,0.7,1.9,1.4,2.7,2
		c1.5,1,2.7,1,3.8,0.4c0.5-0.3,1.1-0.7,1.7-1.2c0.6-0.5,1.3-1.3,2-2.2c0.6-0.7,1.2-1.6,1.9-2.7c0.3-0.4,0.7-0.7,1.2-0.7
		c0.4,0,0.7,0.1,0.9,0.4L48,6.8c0.3,0.3,0.5,0.7,0.5,1.1c0,0.3-0.1,0.6-0.3,0.8c-0.9,1.4-1.8,2.7-2.8,3.9c-1.2,1.4-2.5,2.7-3.9,3.9
		c-1.4,1.1-2.9,2-4.4,2.7c-1.5,0.6-3.1,1-4.6,1c-1.8,0-3.4-0.3-4.9-1c-1.4-0.6-2.7-1.4-3.7-2.2c-0.7-0.5-1.4-1.1-2.1-1.7
		c-0.6-0.6-1.3-1.1-1.9-1.5s-1.2-0.7-1.8-1c-0.6-0.3-1.2-0.4-1.9-0.4c-0.9,0-1.9,0.5-3,1.5c-1.1,0.9-2.2,2.4-3.4,4.5
		c-0.3,0.4-0.7,0.7-1.2,0.7c-0.3,0-0.6-0.1-0.9-0.3l-7.1-5C0.3,13.5,0,13.1,0,12.6z" />
		<path data-logo="space307_st1" d="M77.9,0.4c1,0,1.7,1,1.4,2l-23.2,66c-0.3,0.9-1.2,1.1-2.2,1.1H43.7c-1,0-1.7-1-1.4-2l23.2-66
		c0.3-0.9,1.2-1.1,2.2-1.1C67.7,0.4,77.9,0.4,77.9,0.4z" />
		<ellipse cx="80.3" cy="61.8" rx="7.4" ry="7.7" />
		<path
			d="M139.7,42.1c2.9,2.8,4.3,6.1,4.3,9.6c0,2.4-0.5,4.7-1.5,6.8s-2.5,4-4.3,5.7c-1.9,1.6-4.2,3-6.8,3.9s-5.6,1.4-8.8,1.4
		c-4.2,0-8.1-0.7-11.6-2.1c-3.4-1.3-6.6-3.4-9.6-6.3l0,0c-0.3-0.3-0.5-0.6-0.5-1.1c0-0.3,0.1-0.5,0.2-0.7l4.9-9.2
		c0.3-0.4,0.7-0.8,1.3-0.8c0.5,0,0.9,0.3,1.2,0.7c1,1.5,2.5,2.7,3.4,3.6c1,0.8,2.1,1.6,3.3,2.3c1.2,0.7,2.5,1.2,3.9,1.6
		c1.3,0.4,2.6,0.6,3.8,0.6c2.7,0,4.8-0.4,6.2-1.2c1.3-0.7,1.9-1.7,1.9-3.1c0-0.8-0.1-1.4-0.4-1.9c-0.3-0.5-0.8-1.1-1.5-1.6
		s-1.6-1-2.7-1.5s-2.6-0.9-4.3-1.5c-1-0.3-1.9-0.6-2.8-0.9c-0.9-0.3-1.9-0.6-2.9-1c-1.9-0.7-3.7-1.6-5.2-2.6s-2.9-2.1-4-3.3
		s-2-2.6-2.5-4.2c-0.6-1.6-0.9-3.3-0.9-5.2s0.5-3.9,1.5-5.8s2.4-3.6,4.2-5c1.7-1.5,3.9-2.7,6.3-3.6s5.1-1.4,8-1.4
		c3.8,0,7.3,0.7,10.6,2.1c3.1,1.3,5.9,3.4,8.5,6.4l0,0l0.1,0.1l0,0c0.3,0.4,0.4,0.7,0.4,1.1l0,0c-0.1,0.3-0.2,0.5-0.3,0.7l-4.6,7.2
		c-0.3,0.4-0.7,0.6-1.2,0.6s-0.9-0.2-1.1-0.6l0,0c-0.5-0.7-1-1.3-1-1.3c-0.6-0.7-1.3-1.4-2.1-2.1c-0.9-0.7-1.8-1.3-2.9-1.8
		c-1.1-0.5-2.2-0.9-3.5-1.2c-2.3-0.6-4.5-0.6-6.4-0.3c-0.9,0.1-1.7,0.4-2.4,0.7c-0.6,0.3-1.1,0.7-1.5,1.2c-0.3,0.5-0.5,1-0.5,1.7
		c0,0.8,0.2,1.4,0.5,1.9c0.4,0.5,1,1,1.9,1.5c0.9,0.5,2,1,3.4,1.4c1.4,0.5,3,1,4.9,1.5C132.4,37.1,136.8,39.3,139.7,42.1z" />
		<path d="M196.3,30.5c1.1,3.5,1.7,7.8,1.7,12.5c0,4.3-0.6,8.2-1.7,11.4c-1.1,3.3-2.7,6-4.6,8.2c-1.9,2.2-4.2,3.9-6.8,5
		c-4.5,2-9.5,2.5-14.5,0.3c-1.6-0.7-3-1.6-4.3-2.7v24.6c0,0.8-0.6,1.5-1.4,1.5h-10.2c-0.8,0-1.4-0.7-1.4-1.5L153,17l0,0l0,0l0,0
		c0-0.8,0.6-1.5,1.4-1.5h9.7l0,0c0.7,0,1.4,0.7,1.4,1.4V17l0,0v2.4c0.5-0.6,1-1.1,1.6-1.5c1-0.8,2.1-1.5,3.1-2
		c1.1-0.5,2.2-0.9,3.3-1.1c1.1-0.2,2.1-0.3,3.2-0.3c2.9,0,5.7,0.6,8.3,1.8s4.9,3,6.8,5.3C193.7,24,195.2,26.9,196.3,30.5z M184,49.8
		c0.6-2,1-4.5,1-7.5c0-5.3-0.9-9.5-2.7-12.4c-1.8-2.8-4.3-4.2-7.6-4.2c-1.7,0-3.2,0.4-4.2,1.2c-1.1,0.8-2,1.9-2.6,3.3
		c-0.7,1.4-1.1,3.1-1.3,4.9c-0.2,1.9-0.4,3.9-0.4,6c0,3.1,0.2,5.7,0.7,7.9c0.4,2.2,1,3.9,1.8,5.2c0.7,1.3,1.6,2.2,2.7,2.8
		c2,1.1,4.5,1.3,7.1,0.1c1.2-0.5,2.3-1.4,3.2-2.6C182.5,53.4,183.3,51.8,184,49.8z" />
		<path d="M248.1,26.6c0.9,2.7,1.4,6,1.4,9.7V67c0,0.8-0.7,1.5-1.5,1.5h-9.8c-0.8,0-1.4-0.7-1.4-1.5v-2.6c-1.6,1.4-3.6,2.6-5.7,3.5
		c-2.6,1.1-5.3,1.6-8,1.6c-2.9,0-5.5-0.4-7.7-1.3c-2.2-0.8-4-2-5.4-3.4s-2.5-3.1-3.2-5s-1-3.9-1-6c0-2.7,0.6-5.3,1.7-7.6
		c1.1-2.3,2.8-4.3,4.9-5.9c2.1-1.7,4.8-3,8-3.8c3.1-0.9,6.8-1.3,10.8-1.3h5.5c-0.1-3.3-0.8-5.8-2.1-7.3c-1.3-1.6-3.4-2.6-6.3-2.4
		c-5.6,0.4-9.4,3.9-11.2,5.8l0,0c-0.3,0.3-0.6,0.5-1,0.5l0,0c-0.5,0-0.9-0.2-1.1-0.6l-5-6.7c-0.2-0.2-0.3-0.6-0.3-0.9l0,0
		c0-0.4,0.2-0.8,0.4-1l0,0l0,0l0,0c4.7-4.9,10.9-7.8,17.6-8c3.6-0.1,6.8,0.3,9.7,1.2c2.6,0.8,4.8,2.2,6.6,4
		C245.8,21.5,247.1,23.8,248.1,26.6z M236.3,51.3c0.3-0.5,0.5-1.2,0.6-2.2c0.1-0.9,0.2-2,0.2-3.2l-3.7-0.1c-0.4,0-0.8,0-1.3,0
		c-2.5,0-4.6,0.2-6.2,0.5c-1.9,0.4-3.4,1-4.5,1.8c-1,0.7-1.7,1.5-2.1,2.4c-0.4,0.9-0.6,1.8-0.6,2.7c0,0.8,0.2,1.5,0.5,2.1
		c0.4,0.7,0.8,1.2,1.4,1.7c0.6,0.5,1.3,0.9,2.1,1.3c0.8,0.3,1.7,0.5,2.6,0.5c1.5,0,2.9-0.3,4.1-0.8c1.2-0.5,2.3-1.2,3.2-2
		s1.7-1.6,2.3-2.5C235.6,52.6,236,51.9,236.3,51.3z" />
		<path d="M303,58.8c0.2,0.3,0.4,0.6,0.4,0.9c0,0.4-0.2,0.8-0.4,1.1l0,0c-2.7,2.9-5.7,5.1-8.8,6.5c-3.3,1.4-6.9,2.2-10.7,2.2
		c-3.6,0-7-0.7-10.1-2.1s-5.7-3.3-7.9-5.7c-2.2-2.4-3.9-5.3-5.2-8.7c-1.3-3.3-1.9-7-1.9-10.9c0-0.1,0-0.1,0-0.2c0,0,0-0.1,0-0.2
		c0-3.9,0.6-7.6,1.9-10.9c1.2-3.3,3-6.2,5.2-8.7c2.2-2.4,4.8-4.3,7.9-5.7c3.1-1.4,6.5-2.1,10.1-2.1c3.8,0,7.4,0.7,10.7,2.2
		c3.2,1.4,6.1,3.5,8.8,6.5l0,0c0.3,0.3,0.4,0.6,0.4,1.1c0,0.4-0.2,0.7-0.4,0.9l0,0l-5.7,6.9l0,0c-0.3,0.3-0.6,0.6-1.1,0.6
		c-0.4,0-0.8-0.2-1-0.5l0,0c-0.8-0.9-1.6-1.7-2.3-2.4c-1-0.8-2-1.5-3-2s-2-0.9-3-1.1c-2.9-0.6-5.6-0.3-7.8,0.9
		c-1.5,0.8-2.8,2-3.9,3.4s-2,3.2-2.6,5.1c-0.6,1.8-0.8,3.8-0.9,5.9c0,2.1,0.3,4.1,0.9,5.9c0.6,1.9,1.5,3.7,2.6,5.1
		c1.1,1.4,2.4,2.6,3.9,3.4c2.2,1.2,5,1.5,7.8,0.9c1-0.2,2-0.6,3-1.1s2-1.2,3-2c0.8-0.7,1.6-1.5,2.3-2.4l0,0c0.3-0.3,0.6-0.5,1-0.5
		c0.5,0,0.8,0.3,1.1,0.6l0,0L303,58.8L303,58.8z" />
		<path d="M354.6,28.9c1.1,3.2,1.7,6.9,1.7,11c0,0.9,0,1.8-0.1,2.7l-0.2,1.8c-0.1,0.7-0.7,1.3-1.4,1.3l0,0l0,0H324
		c0.3,2.1,0.8,3.9,1.5,5.3c0.8,1.7,1.7,3.1,2.8,4.2c1.1,1.1,2.3,1.9,3.6,2.4c3.4,1.3,7,0.9,10.4-0.7c1.2-0.6,2.2-1.3,3.2-2.2
		c0.6-0.6,1.1-1.1,1.5-1.6l0,0c0.3-0.3,0.6-0.5,1.1-0.5c0.4,0,0.8,0.2,1,0.4l5.4,5.6c0.3,0.3,0.4,0.7,0.4,1.1c0,0.4-0.2,0.8-0.4,1
		l0,0c-5,5.8-11.2,8.7-18.5,8.7c-3.6,0-6.9-0.6-10-1.8c-3.1-1.2-5.8-3-8-5.4c-2.2-2.3-4-5.2-5.2-8.6c-1.2-3.3-1.9-7.1-1.9-11.4
		s0.6-8.2,1.8-11.6c1.2-3.4,2.8-6.4,5-8.8c2.1-2.4,4.6-4.3,7.5-5.6s6.1-2,9.5-2c3,0,5.8,0.5,8.4,1.6s4.9,2.7,6.8,4.8
		C351.9,23.1,353.5,25.8,354.6,28.9z M324.4,35.5h18.8c-0.1-1.3-0.3-2.5-0.6-3.7c-0.4-1.3-1-2.5-1.8-3.5s-1.8-1.8-2.9-2.4
		c-2.2-1.2-5.2-1.2-7.4-0.1c-1.1,0.5-2.1,1.3-2.9,2.2c-0.9,1-1.5,2.1-2.1,3.5C325,32.7,324.6,34,324.4,35.5z" />
		<path data-logo="space307_st1" d="M507.6,1.7C507.6,1.7,507.5,1.8,507.6,1.7L507.6,1.7l-0.4,5.7l-21,59.9c-0.3,0.9-1.2,1.1-2.2,1.1h-10.2
		c-1,0-1.7-1-1.4-2l19.3-54.3h-22.9c-0.8,0-1.4-0.7-1.4-1.5V1.7l0,0l0,0c0-0.8,0.6-1.5,1.4-1.5l0,0l0,0H506l0,0l0,0
		C507,0.3,507.6,0.9,507.6,1.7z" />
		<path data-logo="space307_st1" d="M427,27.5v14.4c0,1.9,0.3,3.7,0.7,5.4l12.6-35.1c-0.5-0.2-1-0.3-1.6-0.4l0,0c-0.3,0-0.7,0-1.1,0s-0.7,0-1.1,0
		l0,0c-1.1,0.2-2.2,0.5-3.2,1.1c-1.3,0.8-2.4,2-3.4,3.4s-1.7,3.2-2.2,5.1C427.3,23.4,427.1,25.4,427,27.5z M448.2,41.9V27.5
		c0-2.1-0.3-4.1-0.7-5.8l-12.7,35.4c0.6,0.2,1.2,0.4,1.8,0.5l0,0c0.3,0,0.7,0,1.1,0s0.7,0,1.1,0l0,0c1.1-0.2,2.2-0.5,3.2-1.1
		c1.3-0.8,2.4-2,3.4-3.4c0.9-1.5,1.7-3.2,2.2-5.1C447.9,46.1,448.2,44,448.2,41.9z M437.1,0h0.2c0.1,0,0.2,0,0.4,0
		c0.1,0,0.2,0,0.4,0h0.2c3.1,0,6,0.7,8.6,2.1c2.7,1.4,5,3.3,6.9,5.7s3.4,5.3,4.5,8.7c1.1,3.3,1.6,7,1.6,10.9v14.8
		c0,3.9-0.6,7.6-1.6,10.9c-1.1,3.3-2.6,6.2-4.5,8.7c-1.9,2.4-4.2,4.3-6.9,5.7c-2.7,1.4-5.6,2.1-8.8,2.1c-0.1,0-0.2,0-0.4,0
		c-0.1,0-0.3,0-0.4,0c-3.2,0-6.1-0.7-8.8-2.1s-5-3.3-6.9-5.7c-1.9-2.4-3.4-5.3-4.5-8.7c-1.1-3.3-1.6-7-1.6-10.9V27.3l0,0
		c0-3.9,0.5-7.6,1.6-10.9s2.6-6.2,4.5-8.7c1.9-2.4,4.2-4.3,6.9-5.7C431.1,0.7,434,0,437.1,0z" />
		<path data-logo="space307_st1" d="M406.6,48.8c0,3-0.5,5.9-1.4,8.4c-1,2.5-2.4,4.7-4.3,6.5c-1.9,1.8-4.3,3.2-7,4.2s-5.9,1.5-9.4,1.5
		s-6.9-0.7-10-2.1c-2.9-1.3-5.5-3.4-7.9-6.2l-0.1-0.1l0,0c-0.2-0.2-0.3-0.6-0.3-0.9c0-0.3,0.1-0.7,0.3-0.9l5.4-6.9
		c0.3-0.3,0.6-0.5,1.1-0.5c0.2,0,0.5,0,0.9,0.3l0,0l0,0c0.6,0.6,1.5,1.3,2.5,2.1c3.6,2.8,5.8,3.3,8.6,3.5c1.2,0,2.5-0.2,3.5-0.6
		c1.1-0.4,2.1-0.9,2.9-1.8c0.8-0.9,1.5-1.9,2-3.2s0.7-2.7,0.7-4.4c0-1.4-0.3-2.7-0.8-3.9c-0.6-1.2-1.3-2.1-2.3-2.9
		c-1-0.8-2.2-1.4-3.6-1.8c-1.4-0.4-3-0.6-4.6-0.6c-0.1,0-4,0.2-4.7,0.2l0,0c-0.8,0-1.4-0.6-1.4-1.4v-7.7l0,0l0,0
		c0-0.8,0.6-1.4,1.4-1.5l0,0c2.6,0,4.8-0.3,6.7-0.7c2-0.5,3.5-1.1,4.7-1.9s2-1.8,2.5-2.9c0.5-1.2,0.7-2.6,0.7-4.1c0-1-0.2-2-0.5-2.8
		c-0.3-0.8-0.8-1.6-1.4-2.3s-1.4-1.2-2.3-1.6c-2.1-0.9-4.9-0.8-7.9,0.7c-1.5,0.8-3,2.1-4.6,4l0,0c-0.3,0.3-0.6,0.5-1,0.5
		s-0.8-0.2-1.1-0.5l-5.3-6.2c-0.2-0.3-0.4-0.6-0.4-1c0-0.3,0.1-0.6,0.3-0.9c0.1-0.1,0.4-0.5,0.5-0.6c2.1-2.6,4.4-4.5,7-5.7
		c3-1.4,6.2-2.1,9.7-2.1c2.9,0,5.5,0.5,7.9,1.4s4.4,2.2,6.2,3.9c1.7,1.6,3.1,3.6,4.1,5.9c1,2.2,1.4,4.8,1.4,7.5
		c0,1.7-0.3,3.4-0.8,4.9s-1.2,2.9-2.1,4.1s-1.9,2.2-3,3.1c-0.7,0.6-1.4,1.1-2.1,1.5c0.9,0.5,1.8,1,2.6,1.7c1.3,1,2.4,2.3,3.4,3.7
		c1,1.5,1.8,3.2,2.4,5C406.3,44.6,406.6,46.6,406.6,48.8z" />
	</g>
</svg>
